<?xml version="1.0" encoding="UTF-8"?>
<svg version="1.1" xmlns="http://www.w3.org/2000/svg" width="1120" height="1120">
<path d="M0 0 C15.12780111 14.65252928 28.97767318 33.88301924 33.875 54.8046875 C33.46875 57.10546875 33.46875 57.10546875 32.875 58.8046875 C29.52103943 53.93960183 26.39873581 49.01827434 23.5 43.8671875 C20.15529119 38.03826544 16.22625121 32.91316943 11.875 27.8046875 C6.29712693 28.34476727 2.15331807 30.49107429 -2.75 32.9921875 C-54.95444249 58.51402146 -120.92365755 53.9681851 -176.125 42.8046875 C-181.97149443 54.5844802 -187.43363625 66.1569096 -191.125 78.8046875 C-190.04605469 78.92070312 -188.96710938 79.03671875 -187.85546875 79.15625 C-183.40300121 79.71219885 -179.04972147 80.60454034 -174.65893555 81.51879883 C-131.91871025 90.28710424 -86.32445302 90.91776187 -43.125 84.8046875 C-41.87412598 84.62776367 -40.62325195 84.45083984 -39.33447266 84.26855469 C-14.83789334 80.66730563 13.24504384 76.1629843 32.875 59.8046875 C33.535 59.8046875 34.195 59.8046875 34.875 59.8046875 C39.7622558 74.71650054 39.7622558 74.71650054 39.875 80.8046875 C21.14353934 103.95741571 -29.51264513 107.34199188 -56.14746094 110.20996094 C-70.95241353 111.66281651 -85.75914548 112.01035064 -100.625 111.9921875 C-101.54597473 111.99158325 -102.46694946 111.990979 -103.41583252 111.99035645 C-134.42822231 111.93533544 -164.80524022 108.37164008 -195.125 101.8046875 C-194.65778137 115.88392201 -193.80620196 129.81643428 -192.125 143.8046875 C-198.36984419 142.65492133 -203.86531863 140.91437911 -209.5625 138.1171875 C-210.26826172 137.80330078 -210.97402344 137.48941406 -211.70117188 137.16601562 C-215.43173777 135.34527143 -216.84169282 134.46155208 -218.53515625 130.53515625 C-218.82712891 128.68857422 -218.82712891 128.68857422 -219.125 126.8046875 C-219.3415625 125.60585938 -219.558125 124.40703125 -219.78125 123.171875 C-220.18284302 119.63751606 -220.03819338 116.23609176 -219.84375 112.6875 C-218.84454223 101.08851504 -218.84454223 101.08851504 -222.80419922 90.69140625 C-226.88443706 87.44772636 -231.42924884 85.41063557 -236.35327148 83.76416016 C-238.71305864 82.48622664 -239.26064313 81.31629133 -240.125 78.8046875 C-239.79208625 76.0214086 -239.34256821 73.51282824 -238.6875 70.8046875 C-238.5028418 70.01795654 -238.31818359 69.23122559 -238.12792969 68.4206543 C-229.2958778 32.42968843 -208.89548971 2.01516032 -177.21142578 -17.93896484 C-171.37905255 -21.4509462 -165.34307568 -24.43435429 -159.125 -27.1953125 C-158.51479004 -27.47068848 -157.90458008 -27.74606445 -157.27587891 -28.02978516 C-104.44192466 -51.56039726 -41.69488726 -39.63376703 0 0 Z M-129.125 -6.1953125 C-130.02347656 -5.76476562 -130.92195312 -5.33421875 -131.84765625 -4.890625 C-141.83210345 0.19497832 -159.40442118 10.64295105 -163.125 21.8046875 C-157.74708431 23.4655144 -152.43509219 24.51835275 -146.875 25.3671875 C-146.09253906 25.49287109 -145.31007813 25.61855469 -144.50390625 25.74804688 C-142.04751821 26.13073049 -139.58936436 26.47737779 -137.125 26.8046875 C-136.36880371 26.90547607 -135.61260742 27.00626465 -134.83349609 27.11010742 C-125.66715003 28.13011226 -116.43314363 27.99074867 -107.22265625 27.98999023 C-104.29151435 27.99215681 -101.36076214 28.01030556 -98.4296875 28.02929688 C-81.8769423 28.07926913 -65.35576849 27.14313768 -49.0625 24.0546875 C-48.17401367 23.89057373 -47.28552734 23.72645996 -46.37011719 23.55737305 C-36.38805176 21.61543644 -25.27732131 19.38084816 -16.125 14.8046875 C-17.63553734 10.36493248 -21.11587095 8.41823541 -24.875 5.9921875 C-25.88046875 5.33633667 -25.88046875 5.33633667 -26.90625 4.66723633 C-40.71517902 -4.17910882 -55.8020343 -10.80387289 -72.125 -13.1953125 C-72.85074219 -13.30617188 -73.57648438 -13.41703125 -74.32421875 -13.53125 C-92.96446922 -15.87314904 -112.13663024 -14.62925493 -129.125 -6.1953125 Z M-212.53515625 26.9921875 C-218.27504326 33.2884229 -222.10555716 40.49539445 -226.11328125 47.95019531 C-227.80493948 51.05102445 -229.62551478 54.07841961 -231.4453125 57.10546875 C-232.41719558 59.00467116 -232.41719558 59.00467116 -231.125 61.8046875 C-229.52187599 62.95100767 -229.52187599 62.95100767 -227.52734375 63.84765625 C-226.80869141 64.19892578 -226.09003906 64.55019531 -225.34960938 64.91210938 C-224.59486328 65.26853516 -223.84011719 65.62496094 -223.0625 65.9921875 C-221.92458008 66.54422852 -221.92458008 66.54422852 -220.76367188 67.10742188 C-218.88846181 68.01554247 -217.00727267 68.91129765 -215.125 69.8046875 C-214.92455078 69.22203125 -214.72410156 68.639375 -214.51757812 68.0390625 C-210.16669922 55.48958866 -205.42753848 43.50461266 -199.125 31.8046875 C-200.74670379 30.79935083 -202.37247237 29.80056843 -204 28.8046875 C-204.90492188 28.2478125 -205.80984375 27.6909375 -206.7421875 27.1171875 C-209.77085843 25.37523992 -209.77085843 25.37523992 -212.53515625 26.9921875 Z " fill="#0A456D" transform="translate(660.125,371.1953125)"/>
<path d="M0 0 C1.299375 1.175625 1.299375 1.175625 2.625 2.375 C12.9641244 11.13626606 23.05055453 17.76445221 36 22 C36.73476563 22.2470166 37.46953125 22.4940332 38.2265625 22.74853516 C49.30391487 26.40470978 60.50445135 28.80820897 72 30.75 C73.75872437 31.04789429 73.75872437 31.04789429 75.55297852 31.35180664 C94.2959927 34.34305386 112.84894521 35.32866152 131.81933594 35.26074219 C135.36410704 35.25003291 138.90836922 35.26070068 142.453125 35.2734375 C162.18856082 35.28679806 181.65865459 34.09480283 201.125 30.75 C202.38779785 30.53529053 203.6505957 30.32058105 204.95166016 30.09936523 C215.88825381 28.1613314 226.47101108 25.52689659 237 22 C237.74443359 21.7510498 238.48886719 21.50209961 239.25585938 21.24560547 C250.90754105 17.27108739 261.48989966 12.43081224 271.02734375 4.515625 C272.94435504 3.04275296 274.80615251 2.00121899 277 1 C273.29172354 29.93431499 261.60974158 54.52543902 242 76 C241.30777344 76.77472656 240.61554688 77.54945313 239.90234375 78.34765625 C216.01858075 103.70402121 180.90524187 119.4251296 146.21350098 120.47283936 C104.33698784 121.39025906 69.29841976 107.83878786 39 79 C38.35417969 78.40703125 37.70835937 77.8140625 37.04296875 77.203125 C18.1870041 59.36282121 0.85314853 28.85936214 -0.1328125 2.44140625 C-0.08898437 1.63574219 -0.04515625 0.83007812 0 0 Z M225.5 48.25 C198.44248609 55.51941418 170.98518089 58.36785611 143 59 C141.69804688 59.02964844 140.39609375 59.05929687 139.0546875 59.08984375 C135.36531048 59.12633209 131.68865976 59.08375042 128 59 C127.19224121 58.98211426 126.38448242 58.96422852 125.55224609 58.94580078 C107.10214652 58.48277392 88.57876941 57.02780719 70.46386719 53.38256836 C67.93611265 52.99008011 65.55375546 52.9340727 63 53 C64.38292333 57.13405805 66.27689743 59.70975815 69.25 62.875 C71.90847615 65.73212222 74.499162 68.57882416 76.9375 71.625 C91.42479579 88.52684509 114.62737657 98.30780888 136.4375 100.75 C137.95714067 100.85281397 139.47815919 100.93771826 141 101 C141.99386719 101.05994141 141.99386719 101.05994141 143.0078125 101.12109375 C171.31716513 102.0360348 197.60223895 91.14169159 218.16015625 72.1171875 C225.88299064 64.74764586 234.4031434 56.21581435 238 46 C233.53063156 46 229.75745174 47.05832711 225.5 48.25 Z " fill="#0C0C0C" transform="translate(422,496)"/>
<path d="M0 0 C8.34496728 6.90007895 12.81289578 15.94136163 14.125 26.5625 C14.74763766 37.0811021 11.66835044 46.48409342 5.25 54.8125 C-1.69613367 62.51688608 -10.87209284 68.2395182 -21.4296875 68.8828125 C-29.53350931 68.63724214 -34.59332686 66.90202751 -41.75 62.8125 C-42.08 74.6925 -42.41 86.5725 -42.75 98.8125 C-58.75 99.8125 -58.75 99.8125 -62.75 98.8125 C-64.27838931 97.28411069 -63.87592254 95.92014732 -63.87698364 93.78869629 C-63.87980347 92.92210892 -63.88262329 92.05552155 -63.88552856 91.16267395 C-63.88350433 90.2047142 -63.8814801 89.24675446 -63.87939453 88.25976562 C-63.88114685 87.25660812 -63.88289917 86.25345062 -63.88470459 85.21989441 C-63.88912516 81.88616228 -63.88618439 78.55248271 -63.8828125 75.21875 C-63.88348548 72.91328928 -63.88445545 70.60782864 -63.88571167 68.30236816 C-63.88718892 63.46345343 -63.88503321 58.62455713 -63.88037109 53.78564453 C-63.8746738 47.56755355 -63.87795266 41.34950572 -63.88394356 35.13141632 C-63.88754843 30.36866935 -63.88641092 25.6059327 -63.88381577 20.84318542 C-63.88314629 18.54973851 -63.88397562 16.25629068 -63.88629532 13.96284485 C-63.88882064 10.76361594 -63.88498295 7.56445797 -63.87939453 4.36523438 C-63.88141876 3.40727463 -63.88344299 2.44931488 -63.88552856 1.46232605 C-63.88270874 0.59573868 -63.87988892 -0.27084869 -63.87698364 -1.16369629 C-63.87660662 -1.9210331 -63.87622959 -2.6783699 -63.87584114 -3.45865631 C-63.75 -5.1875 -63.75 -5.1875 -62.75 -6.1875 C-61.40732587 -6.27381874 -60.06025678 -6.29456473 -58.71484375 -6.28515625 C-57.90595703 -6.28193359 -57.09707031 -6.27871094 -56.26367188 -6.27539062 C-55.41353516 -6.26701172 -54.56339844 -6.25863281 -53.6875 -6.25 C-52.83349609 -6.24548828 -51.97949219 -6.24097656 -51.09960938 -6.23632812 C-48.98304337 -6.22450373 -46.86651315 -6.20656769 -44.75 -6.1875 C-44.09 -4.5375 -43.43 -2.8875 -42.75 -1.1875 C-42.21890625 -1.53683594 -41.6878125 -1.88617187 -41.140625 -2.24609375 C-40.43421875 -2.70113281 -39.7278125 -3.15617188 -39 -3.625 C-38.30390625 -4.07746094 -37.6078125 -4.52992188 -36.890625 -4.99609375 C-25.43472627 -11.37209578 -9.88902854 -7.05187773 0 0 Z M-41.5 19.9375 C-43.99073831 25.66619812 -44.40140005 31.52775414 -42.75 37.5625 C-40.8765827 42.30905055 -38.20303823 45.32280883 -33.75 47.8125 C-27.92276474 50.06633975 -22.70684968 50.37452599 -16.86328125 48.0703125 C-12.13974603 45.25889227 -8.48409174 41.01477521 -6.75 35.8125 C-6.08524321 28.35850582 -6.10566355 22.83758513 -10.75 16.8125 C-14.70857513 12.9580979 -18.65920109 11.21918407 -24.125 10.5 C-31.22670983 11.34544165 -36.94047718 14.40093657 -41.5 19.9375 Z " fill="#0F4970" transform="translate(630.75,690.1875)"/>
<path d="M0 0 C1.18613892 0.00785522 1.18613892 0.00785522 2.39624023 0.01586914 C3.67724609 0.02070312 3.67724609 0.02070312 4.98413086 0.02563477 C6.33087891 0.03820312 6.33087891 0.03820312 7.70483398 0.05102539 C8.6065332 0.05553711 9.50823242 0.06004883 10.43725586 0.06469727 C12.67234712 0.07652315 14.90730835 0.09300319 17.14233398 0.11352539 C18.24125689 5.39208131 18.2416006 10.43150471 18.1640625 15.79077148 C18.15445496 16.74749756 18.14484741 17.70422363 18.13494873 18.68994141 C18.10207837 21.83902627 18.06170067 24.98796717 18.02124023 28.13696289 C17.99692742 30.3255666 17.97308445 32.51417557 17.94969177 34.70278931 C17.88696641 40.45345066 17.81786716 46.20401838 17.74743652 51.95458984 C17.67664865 57.82653553 17.61189429 63.69854742 17.54663086 69.57055664 C17.41776738 81.08495435 17.28161195 92.59924894 17.14233398 104.11352539 C10.21233398 104.11352539 3.28233398 104.11352539 -3.85766602 104.11352539 C-4.18766602 102.79352539 -4.51766602 101.47352539 -4.85766602 100.11352539 C-5.70329102 100.73227539 -6.54891602 101.35102539 -7.42016602 101.98852539 C-14.42880898 106.59560538 -22.31448026 107.12524181 -30.40454102 105.64868164 C-41.08878727 102.84489652 -49.15473623 96.40306656 -55.10766602 87.17602539 C-60.789721 76.81463101 -60.97232664 65.3338832 -57.96313477 54.14477539 C-54.20258987 43.83317524 -46.4512223 36.55685093 -36.75219727 31.87524414 C-28.65243913 28.61864035 -18.11116648 28.82100112 -10.04516602 31.98852539 C-7.41241055 33.17921882 -5.91610219 34.05508921 -3.85766602 36.11352539 C-3.82008179 34.53099976 -3.82008179 34.53099976 -3.78173828 32.91650391 C-3.68782493 29.01581911 -3.58756568 25.11531914 -3.48535156 21.21484375 C-3.44194163 19.5241324 -3.40027113 17.83337549 -3.36035156 16.14257812 C-3.30279507 13.71738933 -3.23905953 11.29243124 -3.17407227 8.86743164 C-3.15735977 8.10701065 -3.14064728 7.34658966 -3.12342834 6.56312561 C-2.94171533 0.17977364 -2.94171533 0.17977364 0 0 Z M-35.35766602 54.79711914 C-39.37193933 60.10006543 -40.30439176 64.41263921 -39.85766602 71.11352539 C-38.68517918 76.67477028 -36.38859858 80.44635876 -31.87329102 83.91821289 C-26.85600108 86.8935825 -21.87831605 87.53915893 -16.17016602 86.55102539 C-10.5355563 85.007162 -7.23904 82.25703674 -4.04516602 77.30102539 C-1.63623177 70.83493874 -1.22951103 65.75280644 -3.63500977 59.29711914 C-6.32292689 54.49665373 -10.6636782 50.84485466 -15.85766602 49.11352539 C-23.7236444 48.34947335 -29.82405154 48.58621331 -35.35766602 54.79711914 Z " fill="#0D0D0D" transform="translate(470.857666015625,652.886474609375)"/>
<path d="M0 0 C3.31248187 -0.02888146 6.62493167 -0.04675799 9.9375 -0.0625 C10.88302734 -0.07087891 11.82855469 -0.07925781 12.80273438 -0.08789062 C14.15141602 -0.09272461 14.15141602 -0.09272461 15.52734375 -0.09765625 C16.77632446 -0.10551147 16.77632446 -0.10551147 18.05053711 -0.11352539 C20 0 20 0 21 1 C21.08843793 3.44830426 21.11528752 5.86820599 21.09765625 8.31640625 C21.0962413 9.04746078 21.09482635 9.77851532 21.09336853 10.53172302 C21.08775408 12.87535632 21.07519922 15.21889539 21.0625 17.5625 C21.05748686 19.14778508 21.05292363 20.73307166 21.04882812 22.31835938 C21.03777997 26.2122761 21.02050572 30.10612205 21 34 C22.093125 33.360625 23.18625 32.72125 24.3125 32.0625 C31.80621083 27.67938612 41.57983396 27.81299794 49.9609375 29.6484375 C60.59997601 33.57514888 68.26464731 40.9287085 72.99609375 51.15234375 C76.87620098 61.41884756 76.79198116 71.74914984 73 82 C68.49056096 91.94093591 61.19492042 99.33337447 50.98046875 103.32421875 C41.06557871 106.70740608 32.43735219 105.07968871 23 101 C22.34 100.67 21.68 100.34 21 100 C20.34 101.32 19.68 102.64 19 104 C16.20826945 104.02690104 13.41679652 104.04679053 10.625 104.0625 C9.8309375 104.07087891 9.036875 104.07925781 8.21875 104.08789062 C2.2265625 104.11328125 2.2265625 104.11328125 0 103 C-1.35914473 97.19242153 -1.14477746 90.93110665 -1.12939453 84.99536133 C-1.13114685 84.14537064 -1.13289917 83.29537994 -1.13470459 82.41963196 C-1.13906713 79.64041029 -1.13620579 76.86125344 -1.1328125 74.08203125 C-1.13348696 72.13628629 -1.13445817 70.19054142 -1.13571167 68.24479675 C-1.13718089 64.18084912 -1.13505837 60.11692357 -1.13037109 56.05297852 C-1.12466285 50.85123604 -1.12796466 45.64954505 -1.13394356 40.44780445 C-1.13756038 36.43547682 -1.13640561 32.42316136 -1.13381577 28.41083336 C-1.1331502 26.49273357 -1.13396196 24.57463268 -1.13629532 22.65653419 C-1.1388415 19.97647809 -1.13495404 17.29650502 -1.12939453 14.61645508 C-1.13141876 13.82930115 -1.13344299 13.04214722 -1.13552856 12.23114014 C-1.11947924 8.0439 -0.82446206 4.12550708 0 0 Z M21.5625 56.0625 C18.97990703 60.91777478 18.17332761 65.49511338 19 71 C21.21178064 77.34933579 23.77691731 81.95466166 30 85 C34.83951237 86.87335963 39.77783198 86.40036539 44.625 84.8125 C49.93148359 81.96272178 53.25729137 78.32362826 56 73 C56.96124851 67.19245694 56.86913451 61.63938863 53.8125 56.5 C50.85600957 52.47146772 47.79570916 49.59856972 43 48 C33.62544596 46.93987273 27.50985134 48.59018678 21.5625 56.0625 Z " fill="#101010" transform="translate(180,654)"/>
<path d="M0 0 C0.78117188 -0.020625 1.56234375 -0.04125 2.3671875 -0.0625 C8.05386379 -0.10144984 8.05386379 -0.10144984 10.35522461 1.31469727 C12.27560058 4.24159985 11.99443431 7.16274332 11.91796875 10.54296875 C11.91372391 11.24899734 11.90947906 11.95502594 11.90510559 12.68244934 C11.88833034 14.93452303 11.85068243 17.18569742 11.8125 19.4375 C11.79745157 20.96548185 11.78376344 22.49347776 11.77148438 24.02148438 C11.73843089 27.76466872 11.68665832 31.50718196 11.625 35.25 C12.33712646 34.89558838 13.04925293 34.54117676 13.78295898 34.17602539 C22.5584377 29.96813866 29.81622328 28.65345925 39.45703125 30.9140625 C48.42353 34.08194992 54.34882066 39.80427469 58.71484375 48.13671875 C60.33756764 51.90450255 60.74885879 55.20191939 60.73852539 59.29394531 C60.73841209 60.79504852 60.73841209 60.79504852 60.73829651 62.32647705 C60.73313522 63.39952087 60.72797394 64.4725647 60.72265625 65.578125 C60.7212413 66.68226746 60.71982635 67.78640991 60.71836853 68.92401123 C60.71277258 72.44936842 60.70022079 75.97466202 60.6875 79.5 C60.68248448 81.89062408 60.67792166 84.28124916 60.67382812 86.671875 C60.66280447 92.53127168 60.64607033 98.3906313 60.625 104.25 C58.54858901 104.43058204 56.47166025 104.60521707 54.39453125 104.77734375 C53.23800049 104.87523193 52.08146973 104.97312012 50.88989258 105.07397461 C47.24650834 105.27040623 44.17928419 104.99391995 40.625 104.25 C39.83851471 97.93877788 39.51769266 91.70724925 39.4140625 85.35546875 C39.39264191 84.15520554 39.39264191 84.15520554 39.37078857 82.93069458 C39.31290496 79.58251263 39.25823614 76.23449903 39.22363281 72.88598633 C39.19602331 70.4170779 39.15021654 67.94904023 39.1015625 65.48046875 C39.09830963 64.72831589 39.09505676 63.97616302 39.09170532 63.20121765 C38.98706438 58.72846923 38.39457985 55.80495176 35.625 52.25 C31.68633482 49.95244531 28.11491124 49.86293869 23.625 50.25 C18.48444036 51.90543446 15.48879905 53.62386307 12.625 58.25 C11.44429889 62.53341773 11.51177562 66.77669808 11.5625 71.18359375 C11.56628662 71.93915054 11.57007324 72.69470734 11.57397461 73.47315979 C11.59023968 76.68831131 11.61838455 79.90333292 11.64550781 83.1184082 C11.66366221 85.473464 11.67571191 87.82849884 11.6875 90.18359375 C11.69579834 90.90252304 11.70409668 91.62145233 11.71264648 92.36216736 C11.73227845 96.42816789 11.58661829 100.28899448 10.625 104.25 C7.46650315 105.82924842 4.0884872 105.39316514 0.625 105.375 C-0.48101563 105.38080078 -0.48101563 105.38080078 -1.609375 105.38671875 C-7.1216804 105.3766598 -7.1216804 105.3766598 -9.375 104.25 C-10.67101677 87.10508564 -10.52896162 69.93141058 -10.50537109 52.74975586 C-10.49963283 48.51051167 -10.50299242 44.27133026 -10.50894356 40.03208828 C-10.51257306 36.72819045 -10.51140035 33.4243073 -10.50881577 30.12040901 C-10.50815527 28.55729222 -10.50894371 26.99417404 -10.51129532 25.43105888 C-10.5323012 7.58048854 -10.5323012 7.58048854 -9.375 1.25 C-7.272997 -0.852003 -2.89201417 0.01890205 0 0 Z " fill="#154D73" transform="translate(663.375,652.75)"/>
<path d="M0 0 C6.36383221 5.74797748 10.7136903 13.93466981 11.25390625 22.578125 C11.565227 32.95548349 11.565227 32.95548349 10.25390625 35.578125 C-6.90609375 35.908125 -24.06609375 36.238125 -41.74609375 36.578125 C-37.80730868 42.4863026 -36.2426365 44.68418176 -29.74609375 46.578125 C-22.07873455 47.70816279 -16.56432522 46.67275683 -10 42.57421875 C-7.09287619 41.28944133 -5.72761588 41.56364543 -2.74609375 42.578125 C-0.796875 43.8828125 -0.796875 43.8828125 0.94140625 45.453125 C1.52277344 45.96617187 2.10414063 46.47921875 2.703125 47.0078125 C4.25390625 48.578125 4.25390625 48.578125 6.25390625 51.578125 C6.04497502 54.12509614 5.54155247 55.27048198 3.79296875 57.140625 C-6.22073463 64.6611206 -17.20782125 67.29317622 -29.6640625 66.359375 C-39.73335987 64.88235536 -49.31206306 60.38823418 -55.55859375 52.203125 C-61.39254347 43.64666541 -65.22391671 34.07402668 -63.74609375 23.578125 C-61.49688107 12.96130564 -57.47787447 3.57628219 -48.37109375 -2.796875 C-31.61339252 -12.85719564 -15.39981322 -12.54034007 0 0 Z M-39.74609375 13.578125 C-42.17831591 16.77084282 -42.17831591 16.77084282 -42.74609375 20.578125 C-31.52609375 20.578125 -20.30609375 20.578125 -8.74609375 20.578125 C-11.83968079 14.39095092 -14.02639511 10.81802455 -20.74609375 8.578125 C-28.32003615 7.72162101 -33.96421343 8.36309569 -39.74609375 13.578125 Z " fill="#0A466D" transform="translate(796.74609375,692.421875)"/>
<path d="M0 0 C7.57321217 7.40491857 11.39501988 15.71468691 12.0234375 26.3046875 C12.0581099 29.47374476 12.0637062 32.59059892 11.8125 35.75 C10.29106381 37.27143619 8.9102396 36.91901267 6.78686523 36.97119141 C5.93184921 36.99436432 5.07683319 37.01753723 4.19590759 37.04141235 C3.26371902 37.0612619 2.33153046 37.08111145 1.37109375 37.1015625 C0.41485611 37.12471527 -0.54138153 37.14786804 -1.52659607 37.17172241 C-3.5584462 37.21946643 -5.59035691 37.26468738 -7.62231445 37.30761719 C-10.712647 37.37419527 -13.80254351 37.45216409 -16.89257812 37.53125 C-18.86717178 37.57621666 -20.84178093 37.62050846 -22.81640625 37.6640625 C-23.7344252 37.68796051 -24.65244415 37.71185852 -25.59828186 37.73648071 C-30.91135765 37.83866522 -35.93106111 37.54254341 -41.1875 36.75 C-37.90849379 42.29908744 -34.49234011 45.64838663 -28.1875 47.75 C-18.93781595 49.02304014 -12.25527153 46.0596522 -4.1875 41.75 C-2.91236237 42.82826365 -1.64257431 43.91285519 -0.375 45 C0.33269531 45.60328125 1.04039062 46.2065625 1.76953125 46.828125 C3.78299673 48.72224549 5.41794712 50.35933792 6.8125 52.75 C6.68796545 55.38016971 6.13333462 56.41492468 4.31640625 58.3125 C-5.15746625 65.32735932 -15.37392193 68.72692682 -27.1875 67.75 C-38.91507885 65.88245033 -47.8478668 61.27197042 -55.49609375 52.125 C-62.17608249 42.74524675 -62.97453856 32.95967771 -62.1875 21.75 C-59.84388704 10.49783416 -53.21054024 2.3969323 -43.73828125 -3.8125 C-40.00734857 -5.91507768 -36.34152143 -7.25272075 -32.1875 -8.25 C-31.115 -8.518125 -30.0425 -8.78625 -28.9375 -9.0625 C-17.4836013 -9.63519494 -9.16189842 -6.46722241 0 0 Z M-38.5 15.25 C-40.32339869 17.70993343 -40.32339869 17.70993343 -41.1875 20.75 C-38.21390551 22.23679725 -35.52450821 21.86112605 -32.2109375 21.84765625 C-31.52569 21.8462413 -30.8404425 21.84482635 -30.13442993 21.84336853 C-27.94374239 21.83776675 -25.7531567 21.82521406 -23.5625 21.8125 C-22.07812648 21.80748522 -20.59375135 21.80292228 -19.109375 21.79882812 C-15.46871685 21.78779677 -11.82811836 21.77053099 -8.1875 21.75 C-10.42695432 16.31540814 -11.69920607 13.4830776 -16.8046875 10.62890625 C-24.67125257 7.72730438 -32.78299157 9.06945035 -38.5 15.25 Z " fill="#0A466E" transform="translate(932.1875,691.25)"/>
<path d="M0 0 C3.14581423 -0.02888514 6.29159469 -0.04675923 9.4375 -0.0625 C10.33533203 -0.07087891 11.23316406 -0.07925781 12.15820312 -0.08789062 C13.01220703 -0.09111328 13.86621094 -0.09433594 14.74609375 -0.09765625 C15.93223267 -0.10551147 15.93223267 -0.10551147 17.14233398 -0.11352539 C19 0 19 0 20 1 C20.10651507 2.37995072 20.14617586 3.76516259 20.15771484 5.14916992 C20.16797699 6.03066208 20.17823914 6.91215424 20.18881226 7.82035828 C20.19611359 8.78069473 20.20341492 9.74103119 20.2109375 10.73046875 C20.23901797 12.75065898 20.26768251 14.77084116 20.296875 16.79101562 C20.33807317 19.98608068 20.37494623 23.18099739 20.40136719 26.3762207 C20.4290361 29.45295613 20.4749235 32.52900072 20.5234375 35.60546875 C20.52669037 36.55568405 20.52994324 37.50589935 20.53329468 38.48490906 C20.62960752 43.70128868 20.99186116 47.53629589 24 52 C29.49854122 55.40909556 33.77385159 55.31999019 40 54 C42.89483819 53.41245546 42.89483819 53.41245546 45 52 C46.32481546 49.60470331 46.32481546 49.60470331 47 47 C47.33 46.01 47.66 45.02 48 44 C48.11349848 42.54293083 48.17601475 41.08155041 48.20532227 39.62036133 C48.22526749 38.73967484 48.24521271 37.85898834 48.26576233 36.95161438 C48.29083107 35.53117073 48.29083107 35.53117073 48.31640625 34.08203125 C48.33718735 33.10965012 48.35796844 32.13726898 48.37937927 31.13542175 C48.44478748 28.02785335 48.50371929 24.92020015 48.5625 21.8125 C48.60569351 19.70637142 48.64930807 17.60025144 48.69335938 15.49414062 C48.80125267 10.32951276 48.90039123 5.16482093 49 0 C55.6 0 62.2 0 69 0 C69 24.09 69 48.18 69 73 C66.64341603 74.17829199 65.47426764 74.04414372 62.8671875 73.87890625 C62.06152344 73.83056641 61.25585938 73.78222656 60.42578125 73.73242188 C59.58402344 73.67634766 58.74226563 73.62027344 57.875 73.5625 C57.02550781 73.51029297 56.17601562 73.45808594 55.30078125 73.40429688 C53.20020876 73.27448622 51.10005809 73.1378826 49 73 C48.67 72.01 48.34 71.02 48 70 C47.46890625 70.27714844 46.9378125 70.55429687 46.390625 70.83984375 C45.33101563 71.38318359 45.33101563 71.38318359 44.25 71.9375 C43.55390625 72.29714844 42.8578125 72.65679688 42.140625 73.02734375 C35.10583901 76.22380673 26.41748088 76.02812646 19.125 73.75 C11.91949914 70.95364136 6.24735158 66.75283303 2.90679932 59.68803406 C0.11603018 52.54483664 -0.53930622 46.39466578 -0.390625 38.76953125 C-0.38496521 37.65309738 -0.37930542 36.53666351 -0.37347412 35.38639832 C-0.35129198 31.86130759 -0.30112917 28.33727743 -0.25 24.8125 C-0.22991156 22.40561376 -0.21166493 19.9987114 -0.1953125 17.59179688 C-0.15148702 11.72750986 -0.08475952 5.86383073 0 0 Z " fill="#0F0F0F" transform="translate(264,684)"/>
<path d="M0 0 C0.78060791 0.00209473 1.56121582 0.00418945 2.36547852 0.00634766 C10.66055261 0.22996217 17.37638643 2.91759095 24.25 7.5 C23.91830805 13.80214697 20.57676012 18.35216936 17.25 23.5 C16.59515625 23.21125 15.9403125 22.9225 15.265625 22.625 C8.05115296 19.69029951 1.99788108 19.01322213 -5.75 19.5 C-6.41 20.82 -7.07 22.14 -7.75 23.5 C-4.37354902 26.44270035 -0.77315733 27.61054307 3.4375 28.875 C13.39958046 32.05328636 21.20585522 35.37460206 26.5625 44.8125 C28.30412355 51.62066477 27.75964013 58.35812977 24.25 64.5 C19.19253155 71.3837765 12.64148814 74.50779109 4.36328125 76.03125 C-6.86740083 77.32314545 -17.1335565 75.57831806 -26.75 69.5 C-29.375 67.1875 -29.375 67.1875 -30.75 65.5 C-29.4244419 61.87723685 -27.80653045 58.86494652 -25.625 55.6875 C-25.08617187 54.89730469 -24.54734375 54.10710938 -23.9921875 53.29296875 C-23.58226562 52.70128906 -23.17234375 52.10960937 -22.75 51.5 C-17.92045455 53.43014706 -17.92045455 53.43014706 -15.7578125 54.31640625 C-7.88977048 57.43424033 -1.88432966 57.73186823 6.25 55.5 C6.4613453 53.1087705 6.4613453 53.1087705 5.25 50.5 C2.45767119 48.68802876 -0.63609909 47.64335166 -3.75 46.5 C-21.49338021 39.90174657 -21.49338021 39.90174657 -27.75 31.5 C-29.62749119 25.86752643 -29.68023685 19.79391528 -27.25 14.3125 C-21.30068394 3.96404179 -11.48967671 -0.09208665 0 0 Z " fill="#0B466D" transform="translate(529.75,682.5)"/>
<path d="M0 0 C6.93 0 13.86 0 21 0 C21 33.99 21 67.98 21 103 C17.71855481 104.64072259 14.10210004 104.14274434 10.5 104.125 C9.71496094 104.12886719 8.92992187 104.13273438 8.12109375 104.13671875 C2.25330787 104.12665394 2.25330787 104.12665394 0 103 C0 69.01 0 35.02 0 0 Z " fill="#101010" transform="translate(379,654)"/>
<path d="M0 0 C1.66869141 -0.02126953 1.66869141 -0.02126953 3.37109375 -0.04296875 C6.52817188 0.18502098 8.71957747 0.84308991 11.5625 2.1875 C10.97882611 8.49117803 9.52178381 14.17410063 7.5625 20.1875 C6.86125 20.21328125 6.16 20.2390625 5.4375 20.265625 C-0.81353612 20.63932825 -6.36967669 21.24032558 -11.4375 25.1875 C-14.31043101 29.63590931 -15.52349587 33.97131848 -15.64282227 39.22167969 C-15.66276749 40.00218689 -15.68271271 40.78269409 -15.70326233 41.58685303 C-15.72833107 42.8355014 -15.72833107 42.8355014 -15.75390625 44.109375 C-15.77468735 44.96936096 -15.79546844 45.82934692 -15.81687927 46.71539307 C-15.88213739 49.45601598 -15.94114917 52.19673275 -16 54.9375 C-16.04320781 56.7981867 -16.08682282 58.65886398 -16.13085938 60.51953125 C-16.23779442 65.07542523 -16.33912851 69.6314134 -16.4375 74.1875 C-17.86962803 74.35282349 -19.30196 74.51638086 -20.734375 74.67919922 C-21.53198242 74.77047089 -22.32958984 74.86174255 -23.15136719 74.95578003 C-25.92083525 75.23649034 -28.65445317 75.32040638 -31.4375 75.3125 C-32.8296875 75.31636719 -32.8296875 75.31636719 -34.25 75.3203125 C-36.4375 75.1875 -36.4375 75.1875 -37.4375 74.1875 C-37.5371392 71.95362794 -37.56549795 69.71656141 -37.56689453 67.48046875 C-37.56864685 66.77967194 -37.57039917 66.07887512 -37.57220459 65.35684204 C-37.57662266 63.02953651 -37.57368529 60.70230636 -37.5703125 58.375 C-37.57098555 56.76456691 -37.57195559 55.15413391 -37.57321167 53.54370117 C-37.57468858 50.16421545 -37.57253431 46.7847561 -37.56787109 43.40527344 C-37.5621738 39.06373495 -37.56545285 34.72225827 -37.57144356 30.38072205 C-37.57504936 27.05399099 -37.5739105 23.7272747 -37.57131577 20.40054321 C-37.57064655 18.79928582 -37.57147474 17.1980271 -37.57379532 15.59677124 C-37.57632216 13.36265489 -37.57248085 11.12864 -37.56689453 8.89453125 C-37.56609894 7.6206958 -37.56530334 6.34686035 -37.56448364 5.03442383 C-37.4375 2.1875 -37.4375 2.1875 -36.4375 1.1875 C-33.46645987 1.03392735 -30.53472447 0.95581879 -27.5625 0.9375 C-26.73363281 0.916875 -25.90476562 0.89625 -25.05078125 0.875 C-24.25285156 0.86984375 -23.45492187 0.8646875 -22.6328125 0.859375 C-21.90078613 0.8500293 -21.16875977 0.84068359 -20.41455078 0.83105469 C-17.91978773 1.28083909 -17.03627494 2.27653824 -15.4375 4.1875 C-14.695 3.713125 -13.9525 3.23875 -13.1875 2.75 C-8.75264237 0.23019453 -5.081173 0.02937094 0 0 Z " fill="#05426C" transform="translate(854.4375,682.8125)"/>
<path d="M0 0 C0.83265381 0.00523682 1.66530762 0.01047363 2.52319336 0.01586914 C3.42231445 0.0190918 4.32143555 0.02231445 5.24780273 0.02563477 C6.66609375 0.03820312 6.66609375 0.03820312 8.11303711 0.05102539 C9.06243164 0.05553711 10.01182617 0.06004883 10.98999023 0.06469727 C13.34356776 0.07652429 15.69702188 0.09300514 18.05053711 0.11352539 C18.63806246 17.52833921 19.1521413 34.93763439 19.17553711 52.36352539 C19.18004883 53.64557861 19.18456055 54.92763184 19.18920898 56.24853516 C19.18727539 57.44663818 19.1853418 58.64474121 19.18334961 59.87915039 C19.18222168 60.91845703 19.18109375 61.95776367 19.17993164 63.02856445 C19.03817484 66.4082606 18.52891857 69.76485518 18.05053711 73.11352539 C11.45053711 73.11352539 4.85053711 73.11352539 -1.94946289 73.11352539 C-2.67847115 55.31791301 -3.05727399 37.54915427 -3.07446289 19.73852539 C-3.07696045 18.81709747 -3.07945801 17.89566956 -3.08203125 16.94631958 C-3.08787564 14.32753655 -3.08645949 11.70887197 -3.08227539 9.09008789 C-3.08425934 8.29671524 -3.08624329 7.50334259 -3.08828735 6.68592834 C-3.06022921 0.17820997 -3.06022921 0.17820997 0 0 Z " fill="#010101" transform="translate(347.949462890625,684.886474609375)"/>
<path d="M0 0 C3.23614966 1.51020317 5.68871437 3.28758216 8 6 C9.31731308 10.37714788 9.32538863 14.07521127 7.8125 18.375 C5.09295668 22.31364895 3.34244493 23.6453919 -1.3125 24.875 C-5.78997923 25.02677896 -8.13953057 24.25801042 -12 22 C-14.8694861 18.76263107 -15.9003512 16.79719042 -16.4375 12.5 C-15.82416425 7.59331401 -14.60892985 4.37908273 -10.8125 1.125 C-7.09225679 -0.36309728 -3.95534846 -0.60172644 0 0 Z " fill="#1A1A1A" transform="translate(360,653)"/>
<path d="M0 0 C1.26166992 0.00580078 1.26166992 0.00580078 2.54882812 0.01171875 C3.38607422 0.00785156 4.22332031 0.00398437 5.0859375 0 C5.88708984 0.00128906 6.68824219 0.00257813 7.51367188 0.00390625 C8.25093506 0.00503418 8.98819824 0.00616211 9.74780273 0.00732422 C11.61132812 0.13671875 11.61132812 0.13671875 13.61132812 1.13671875 C14.23632812 3.19921875 14.23632812 3.19921875 14.61132812 5.13671875 C13.62132812 5.63171875 13.62132812 5.63171875 12.61132812 6.13671875 C12.61132812 4.81671875 12.61132812 3.49671875 12.61132812 2.13671875 C4.19632813 2.63171875 4.19632813 2.63171875 -4.38867188 3.13671875 C-4.41125401 11.55985464 -4.42960504 19.98296705 -4.44048405 28.40612507 C-4.44570512 32.31722958 -4.45278873 36.22831232 -4.46411133 40.1394043 C-4.47496772 43.9130239 -4.48095457 47.68662256 -4.48354912 51.46025658 C-4.48539839 52.90077227 -4.48900949 54.34128681 -4.49440193 55.78179359 C-4.50164873 57.79763295 -4.50208024 59.81349333 -4.50219727 61.8293457 C-4.50441788 62.97740189 -4.50663849 64.12545807 -4.50892639 65.30830383 C-4.51548913 68.21567363 -4.51548913 68.21567363 -3.38867188 71.13671875 C1.56132813 70.80671875 6.51132812 70.47671875 11.61132812 70.13671875 C11.57056152 68.9657666 11.52979492 67.79481445 11.48779297 66.58837891 C11.33959095 62.2538785 11.20484783 57.91904705 11.07421875 53.58398438 C11.01573282 51.70593619 10.95357171 49.82799878 10.88769531 47.95019531 C10.79376787 45.25476243 10.71296095 42.55921059 10.63476562 39.86328125 C10.60256927 39.02052643 10.57037292 38.17777161 10.53720093 37.30947876 C10.48404784 35.25243034 10.53827012 33.19315644 10.61132812 31.13671875 C11.27132812 30.47671875 11.93132813 29.81671875 12.61132812 29.13671875 C13.27132812 29.46671875 13.93132813 29.79671875 14.61132812 30.13671875 C14.28132812 44.32671875 13.95132813 58.51671875 13.61132812 73.13671875 C3.36479073 74.27522291 3.36479073 74.27522291 -1.38867188 74.26171875 C-2.78085937 74.26558594 -2.78085937 74.26558594 -4.20117188 74.26953125 C-6.38867188 74.13671875 -6.38867188 74.13671875 -7.38867188 73.13671875 C-7.48831107 70.90284669 -7.51666982 68.66578016 -7.51806641 66.4296875 C-7.51981873 65.72889069 -7.52157104 65.02809387 -7.52337646 64.30606079 C-7.52779453 61.97875526 -7.52485716 59.65152511 -7.52148438 57.32421875 C-7.52215743 55.71378566 -7.52312746 54.10335266 -7.52438354 52.49291992 C-7.52586046 49.1134342 -7.52370618 45.73397485 -7.51904297 42.35449219 C-7.51334568 38.0129537 -7.51662472 33.67147702 -7.52261543 29.3299408 C-7.52622123 26.00320974 -7.52508237 22.67649345 -7.52248764 19.34976196 C-7.52181842 17.74850457 -7.52264661 16.14724585 -7.52496719 14.54598999 C-7.52749403 12.31187364 -7.52365272 10.07785875 -7.51806641 7.84375 C-7.51727081 6.56991455 -7.51647522 5.2960791 -7.51565552 3.98364258 C-7.28142342 -1.26774991 -4.63053381 0.00746258 0 0 Z " fill="#5B7C92" transform="translate(824.388671875,683.86328125)"/>
<path d="M0 0 C0.83265381 0.00523682 1.66530762 0.01047363 2.52319336 0.01586914 C3.42231445 0.0190918 4.32143555 0.02231445 5.24780273 0.02563477 C6.66609375 0.03820312 6.66609375 0.03820312 8.11303711 0.05102539 C9.06243164 0.05553711 10.01182617 0.06004883 10.98999023 0.06469727 C13.34356776 0.07652429 15.69702188 0.09300514 18.05053711 0.11352539 C18.63806246 17.52833921 19.1521413 34.93763439 19.17553711 52.36352539 C19.18004883 53.64557861 19.18456055 54.92763184 19.18920898 56.24853516 C19.18727539 57.44663818 19.1853418 58.64474121 19.18334961 59.87915039 C19.18222168 60.91845703 19.18109375 61.95776367 19.17993164 63.02856445 C19.03817484 66.4082606 18.52891857 69.76485518 18.05053711 73.11352539 C11.45053711 73.11352539 4.85053711 73.11352539 -1.94946289 73.11352539 C-2.67847115 55.31791301 -3.05727399 37.54915427 -3.07446289 19.73852539 C-3.07696045 18.81709747 -3.07945801 17.89566956 -3.08203125 16.94631958 C-3.08787564 14.32753655 -3.08645949 11.70887197 -3.08227539 9.09008789 C-3.08425934 8.29671524 -3.08624329 7.50334259 -3.08828735 6.68592834 C-3.06022921 0.17820997 -3.06022921 0.17820997 0 0 Z M5.80053711 1.55102539 C4.74350586 1.63223633 3.68647461 1.71344727 2.59741211 1.79711914 C0.11909244 1.84012455 0.11909244 1.84012455 -0.94946289 3.11352539 C-1.04368029 5.23033856 -1.0668905 7.35033297 -1.06298828 9.46923828 C-1.06313431 10.13262711 -1.06328033 10.79601593 -1.06343079 11.47950745 C-1.0627317 13.68176495 -1.05493954 15.88393884 -1.04711914 18.08618164 C-1.04525495 19.60932875 -1.04383105 21.13247646 -1.04283142 22.65562439 C-1.03900635 26.6719019 -1.02917617 30.68814347 -1.01812744 34.70440674 C-1.00791308 38.79975905 -1.00333375 42.89511715 -0.99829102 46.99047852 C-0.98755388 55.03151251 -0.96995718 63.07251034 -0.94946289 71.11352539 C4.99053711 71.11352539 10.93053711 71.11352539 17.05053711 71.11352539 C17.05053711 48.01352539 17.05053711 24.91352539 17.05053711 1.11352539 C13.24352157 1.11352539 9.58626635 1.24798056 5.80053711 1.55102539 Z " fill="#686868" transform="translate(347.949462890625,684.886474609375)"/>
<path d="M0 0 C0.33 0.99 0.66 1.98 1 3 C0.67 3.66 0.34 4.32 0 5 C-2.475 4.505 -2.475 4.505 -5 4 C-11.02637349 11.11865368 -15.52332527 18.87080823 -20 27 C-20.53367187 27.93328125 -21.06734375 28.8665625 -21.6171875 29.828125 C-22.07351563 30.62734375 -22.52984375 31.4265625 -23 32.25 C-23.391875 32.93578125 -23.78375 33.6215625 -24.1875 34.328125 C-25.14569942 35.9899963 -25.14569942 35.9899963 -25 38 C-22.03 39.65 -19.06 41.3 -16 43 C-16.99 43.66 -17.98 44.32 -19 45 C-19.66 44.67 -20.32 44.34 -21 44 C-21 43.34 -21 42.68 -21 42 C-21.78375 41.855625 -22.5675 41.71125 -23.375 41.5625 C-26 41 -26 41 -28 40 C-28.99 42.475 -28.99 42.475 -30 45 C-31.21272734 41.51441616 -30.78181271 39.48836795 -29.59375 36.03515625 C-29.26503906 35.07552979 -28.93632812 34.11590332 -28.59765625 33.12719727 C-28.23542969 32.11584717 -27.87320312 31.10449707 -27.5 30.0625 C-27.13777344 29.03374756 -26.77554687 28.00499512 -26.40234375 26.94506836 C-23.59721456 19.18514762 -20.31894088 12.03177562 -16 5 C-15.34 6.32 -14.68 7.64 -14 9 C-13.319375 8.2575 -13.319375 8.2575 -12.625 7.5 C-11 6 -11 6 -9 6 C-9 4.35 -9 2.7 -9 1 C-4.545 0.505 -4.545 0.505 0 0 Z " fill="#456D85" transform="translate(454,394)"/>
<path d="M0 0 C4.01782208 3.7006256 6.73968943 7.4177178 9.375 12.1875 C9.75640137 12.87295898 10.13780273 13.55841797 10.53076172 14.26464844 C13.42391929 19.61717069 15.87960186 25.0972938 18.125 30.75 C18.43228027 31.51207764 18.73956055 32.27415527 19.05615234 33.05932617 C20.48687604 36.8237436 21.24081521 39.15740687 20 43 C16.61630284 38.09177994 13.45489196 33.11678724 10.5 27.9375 C7.66065021 22.99867554 4.56501966 18.43995122 1 14 C3.97 14.495 3.97 14.495 7 15 C5.84826645 12.53199953 4.95216435 10.95216435 3 9 C0.63593569 5.54482909 0 4.32087886 0 0 Z " fill="#31586E" transform="translate(673,387)"/>
<path d="M0 0 C0 0.66 0 1.32 0 2 C-3.51681544 3.17227181 -6.54578799 3.22004292 -10.25 3.375 C-15.8227977 3.67263128 -20.05947443 4.37206087 -25 7 C-26.99263591 7.68836513 -28.99041337 8.36281399 -31 9 C-30.67 9.99 -30.34 10.98 -30 12 C-34.625 16 -34.625 16 -38 16 C-38.28875 16.763125 -38.5775 17.52625 -38.875 18.3125 C-40 21 -40 21 -42 24 C-42.66 24 -43.32 24 -44 24 C-41.86505411 15.46021643 -36.71312684 9.84984042 -29.36328125 5.31640625 C-19.31501729 -0.2807259 -11.40974587 -1.34110937 0 0 Z " fill="#1E4C6E" transform="translate(780,683)"/>
<path d="M0 0 C2.0622048 -0.054348 4.12482816 -0.09294961 6.1875 -0.125 C7.33605469 -0.14820313 8.48460937 -0.17140625 9.66796875 -0.1953125 C12.91740372 -0.00484152 15.08660521 0.60639873 18 2 C17.41632611 8.30367803 15.95928381 13.98660063 14 20 C13.29875 20.02578125 12.5975 20.0515625 11.875 20.078125 C5.64370116 20.4506483 0.03920386 21.03533225 -5 25 C-7.03824673 28.06762838 -7.03824673 28.06762838 -8 31 C-8.33 31 -8.66 31 -9 31 C-9.45552895 27.08245101 -9.38059386 25.49592533 -6.9375 22.3125 C-1.30707226 17.88003561 4.04527716 16.61006341 11 16 C11.33 14.35 11.66 12.7 12 11 C12.66 11 13.32 11 14 11 C14.33 8.03 14.66 5.06 15 2 C13.2365625 2.0309375 13.2365625 2.0309375 11.4375 2.0625 C7.52586533 2.06947261 3.85502056 1.64250343 0 1 C0 0.67 0 0.34 0 0 Z " fill="#335C73" transform="translate(848,683)"/>
<path d="M0 0 C5.35799816 7.14399755 5.64371874 15.24243112 5 24 C4.67 24.66 4.34 25.32 4 26 C-13.16 26.33 -30.32 26.66 -48 27 C-46.02 29.97 -46.02 29.97 -44 33 C-43.67 33.66 -43.34 34.32 -43 35 C-44.65 34.67 -46.3 34.34 -48 34 C-48 32.68 -48 31.36 -48 30 C-48.99 30 -49.98 30 -51 30 C-50.67 28.35 -50.34 26.7 -50 25 C-32.51 25 -15.02 25 3 25 C2.67 20.71 2.34 16.42 2 12 C1.67 12 1.34 12 1 12 C0.505 6.06 0.505 6.06 0 0 Z " fill="#43677F" transform="translate(803,702)"/>
<path d="M0 0 C4.95932922 2.40452326 9.10452785 6.31509009 12 11 C11.9191686 13.82909889 11.26443542 14.74660694 9.22265625 16.703125 C8.50980469 17.21359375 7.79695312 17.7240625 7.0625 18.25 C6.35222656 18.77078125 5.64195312 19.2915625 4.91015625 19.828125 C3 21 3 21 1 21 C2.17451469 18.22387436 3.66968014 16.1349731 5.625 13.875 C8.21229382 11.36453083 8.21229382 11.36453083 8 9 C5.69 8.34 3.38 7.68 1 7 C1 6.01 1 5.02 1 4 C0.48050781 4.30035156 -0.03898438 4.60070312 -0.57421875 4.91015625 C-6.34133791 8.05488851 -6.34133791 8.05488851 -10 7.75 C-10.66 7.5025 -11.32 7.255 -12 7 C-9.47764868 5.31843245 -6.96413358 3.83531994 -4.3125 2.375 C-3.50425781 1.92898438 -2.69601562 1.48296875 -1.86328125 1.0234375 C-1.24839844 0.68570313 -0.63351562 0.34796875 0 0 Z " fill="#325D76" transform="translate(927,733)"/>
<path d="M0 0 C0.99 0.86625 1.98 1.7325 3 2.625 C6.86190708 5.94197541 10.89447006 8.99283262 15 12 C12.7495896 13.17078921 10.76930226 14.06438077 8.3125 14.75 C7.1678125 15.36875 7.1678125 15.36875 6 16 C5.10169161 19.05272465 5.10169161 19.05272465 5 22 C2.85773643 18.78660465 2.22972551 16.43016168 1.375 12.6875 C1.11460937 11.57761719 0.85421875 10.46773438 0.5859375 9.32421875 C0.0237766 6.13489257 -0.10749599 3.22976591 0 0 Z " fill="#202222" transform="translate(422,496)"/>
<path d="M0 0 C4.75481646 0.57634139 7.97048212 2.55068521 12 5 C11.66830805 11.30214697 8.32676012 15.85216936 5 21 C4.34515625 20.72285156 3.6903125 20.44570313 3.015625 20.16015625 C-4.03389155 17.36225491 -10.43526622 16.26403957 -18 16 C-18 15.67 -18 15.34 -18 15 C-16.51886719 15.01740234 -16.51886719 15.01740234 -15.0078125 15.03515625 C-13.72648438 15.04417969 -12.44515625 15.05320312 -11.125 15.0625 C-9.21074219 15.07990234 -9.21074219 15.07990234 -7.2578125 15.09765625 C-4.11335348 15.23176569 -4.11335348 15.23176569 -2 14 C0.125 14.4375 0.125 14.4375 2 15 C2 16.32 2 17.64 2 19 C2.66 19 3.32 19 4 19 C4.12375 18.2575 4.2475 17.515 4.375 16.75 C4.9569895 14.18924619 5.80421396 12.31185302 7 10 C7 9.34 7 8.68 7 8 C6.34 7.34 5.68 6.68 5 6 C5.66 6 6.32 6 7 6 C7 5.34 7 4.68 7 4 C4.525 3.505 4.525 3.505 2 3 C2 2.34 2 1.68 2 1 C1.34 0.67 0.68 0.34 0 0 Z " fill="#4F7289" transform="translate(542,685)"/>
<path d="M0 0 C1.16241211 0.06566162 2.32482422 0.13132324 3.52246094 0.19897461 C17.0951109 0.93705451 30.66082484 1.29926882 44.25 1.5625 C46.3750055 1.60585089 48.50000556 1.64946936 50.625 1.69335938 C55.74994282 1.79864301 60.87494454 1.90035682 66 2 C66 2.33 66 2.66 66 3 C64.97309555 3.0154612 64.97309555 3.0154612 63.92544556 3.03123474 C56.82063955 3.1391468 49.71596431 3.25375694 42.61132812 3.37231445 C39.95738452 3.41571248 37.3034121 3.45738388 34.64941406 3.49731445 C30.84170842 3.55489925 27.03414845 3.6186275 23.2265625 3.68359375 C22.03382721 3.70030624 20.84109192 3.71701874 19.61221313 3.73423767 C18.51122284 3.75418289 17.41023254 3.77412811 16.27587891 3.79467773 C14.8169371 3.81799416 14.8169371 3.81799416 13.32852173 3.84178162 C10.97609526 3.85130651 10.97609526 3.85130651 9 5 C6.8359375 4.22265625 6.8359375 4.22265625 4.375 3.0625 C3.55773437 2.68222656 2.74046875 2.30195313 1.8984375 1.91015625 C1.27195312 1.60980469 0.64546875 1.30945313 0 1 C0 0.67 0 0.34 0 0 Z " fill="#60839B" transform="translate(512,458)"/>
<path d="M0 0 C0.33 0 0.66 0 1 0 C1 15.18 1 30.36 1 46 C-4.94 45.67 -10.88 45.34 -17 45 C-16.67 43.68 -16.34 42.36 -16 41 C-14.68 41.66 -13.36 42.32 -12 43 C-8.7 43.33 -5.4 43.66 -2 44 C-1.34 29.48 -0.68 14.96 0 0 Z " fill="#0F405C" transform="translate(722,711)"/>
<path d="M0 0 C5.94 0 11.88 0 18 0 C18.66 1.65 19.32 3.3 20 5 C20.99 5 21.98 5 23 5 C22.67 5.99 22.34 6.98 22 8 C19.525 7.505 19.525 7.505 17 7 C17 5.68 17 4.36 17 3 C16.26394531 3.01160156 15.52789063 3.02320313 14.76953125 3.03515625 C13.79371094 3.04417969 12.81789063 3.05320312 11.8125 3.0625 C10.36810547 3.07990234 10.36810547 3.07990234 8.89453125 3.09765625 C6 3 6 3 1 2 C1 9.92 1 17.84 1 26 C0.67 26 0.34 26 0 26 C0 17.42 0 8.84 0 0 Z " fill="#37617A" transform="translate(568,684)"/>
<path d="M0 0 C0.33 0.66 0.66 1.32 1 2 C-0.3125 4.625 -0.3125 4.625 -2 7 C-2.66 7 -3.32 7 -4 7 C-4.33 8.32 -4.66 9.64 -5 11 C-5.66 11 -6.32 11 -7 11 C-7.33 11.99 -7.66 12.98 -8 14 C-8.66 14 -9.32 14 -10 14 C-10.33 17.3 -10.66 20.6 -11 24 C-12.32 24.33 -13.64 24.66 -15 25 C-15.33 26.32 -15.66 27.64 -16 29 C-17.13268564 25.60194307 -17.00940683 23.43198324 -16 20 C-14.50160129 17.58732411 -12.99157418 15.33966776 -11.3125 13.0625 C-10.89033203 12.46759766 -10.46816406 11.87269531 -10.03320312 11.25976562 C-7.02107454 7.10275558 -3.70450618 3.5526377 0 0 Z " fill="#305B79" transform="translate(456,376)"/>
<path d="M0 0 C5.39676976 4.57907737 9.04983063 10.60654938 12 17 C12.19921875 19.875 12.19921875 19.875 12 22 C11.01 22 10.02 22 9 22 C9 21.34 9 20.68 9 20 C8.236875 19.7525 7.47375 19.505 6.6875 19.25 C3.7635955 17.89004442 2.69995644 16.68414174 1 14 C3.97 14.495 3.97 14.495 7 15 C5.84826645 12.53199953 4.95216435 10.95216435 3 9 C0.63593569 5.54482909 0 4.32087886 0 0 Z " fill="#275974" transform="translate(673,387)"/>
<path d="M0 0 C-5.10528421 2.8933485 -10.7788902 3.29216248 -16.5 4.1875 C-18.21123047 4.47270508 -18.21123047 4.47270508 -19.95703125 4.76367188 C-21.05402344 4.93833984 -22.15101563 5.11300781 -23.28125 5.29296875 C-24.28220703 5.4530542 -25.28316406 5.61313965 -26.31445312 5.77807617 C-28.87068992 5.98931428 -30.58597516 5.79977131 -33 5 C-32.67 4.34 -32.34 3.68 -32 3 C-30.02 3 -28.04 3 -26 3 C-26 2.67 -26 2.34 -26 2 C-17.17645645 -0.45098432 -9.07909735 -1.51318289 0 0 Z " fill="#345F78" transform="translate(645,474)"/>
<path d="M0 0 C1.08796875 0.08378906 2.1759375 0.16757812 3.296875 0.25390625 C11.98802137 0.87335733 20.31860832 1.08726485 29 0 C29 0.66 29 1.32 29 2 C28.01 2 27.02 2 26 2 C26 2.66 26 3.32 26 4 C18.21397566 5.5971332 9.52615815 5.97545787 2 3 C1.34 2.01 0.68 1.02 0 0 Z " fill="#385F7B" transform="translate(894,754)"/>
<path d="M0 0 C0.33 0 0.66 0 1 0 C2.17566272 5.5843979 2 9.98669057 2 16 C-14.83 16 -31.66 16 -49 16 C-49 15.67 -49 15.34 -49 15 C-33.49 14.67 -17.98 14.34 -2 14 C-0.32942937 9.82357344 0.24868781 8.33104148 0.125 4.1875 C0.10695313 3.39730469 0.08890625 2.60710938 0.0703125 1.79296875 C0.04710937 1.20128906 0.02390625 0.60960937 0 0 Z " fill="#104260" transform="translate(941,711)"/>
<path d="M0 0 C18 0 18 0 20 1 C20.625 3.0625 20.625 3.0625 21 5 C20.01 5.495 20.01 5.495 19 6 C19 4.68 19 3.36 19 2 C10.585 2.495 10.585 2.495 2 3 C1.67 13.89 1.34 24.78 1 36 C0.67 36 0.34 36 0 36 C0 24.12 0 12.24 0 0 Z " fill="#486C84" transform="translate(818,684)"/>
<path d="M0 0 C0.66 0.33 1.32 0.66 2 1 C1.34 2.32 0.68 3.64 0 5 C-0.66 5 -1.32 5 -2 5 C-2.12375 5.53625 -2.2475 6.0725 -2.375 6.625 C-4.42857143 14.42857143 -4.42857143 14.42857143 -6 16 C-6.07244053 18.01964199 -6.08377188 20.04167124 -6.0625 22.0625 C-6.04896484 23.71958984 -6.04896484 23.71958984 -6.03515625 25.41015625 C-6.02355469 26.26480469 -6.01195312 27.11945312 -6 28 C-8.95649207 25.04350793 -9.19262409 22.33149756 -9.3125 18.3125 C-9.2342804 11.60516913 -6.92564008 6.75556555 -2.25 2 C-1.5075 1.34 -0.765 0.68 0 0 Z " fill="#406680" transform="translate(510,688)"/>
<path d="M0 0 C0 0.66 0 1.32 0 2 C-4.60477129 3.53492376 -9.31344055 3.39330493 -14.140625 3.62109375 C-18.05614303 4.00551202 -21.27145215 4.80705788 -25 6 C-25 5.01 -25 4.02 -25 3 C-16.43711895 -1.01931151 -9.30608326 -1.09384342 0 0 Z " fill="#3E6780" transform="translate(780,683)"/>
<path d="M0 0 C0.33 0 0.66 0 1 0 C1 4.95 1 9.9 1 15 C-15.83 15 -32.66 15 -50 15 C-50 14.67 -50 14.34 -50 14 C-49.44511902 13.99191315 -48.89023804 13.98382629 -48.31854248 13.97549438 C-42.54334593 13.88943744 -36.76849216 13.78993333 -30.99365234 13.68261719 C-28.83843747 13.64433398 -26.68315884 13.60947996 -24.52783203 13.578125 C-21.42978124 13.5324605 -18.33216909 13.47446788 -15.234375 13.4140625 C-13.78886261 13.39673569 -13.78886261 13.39673569 -12.31414795 13.37905884 C-11.41351624 13.35918915 -10.51288452 13.33931946 -9.58496094 13.31884766 C-8.39915436 13.29886215 -8.39915436 13.29886215 -7.18939209 13.2784729 C-4.71211667 12.96338358 -3.08980709 12.36335936 -1 11 C-0.29626983 8.35212912 -0.29626983 8.35212912 -0.25 5.375 C-0.16492188 3.87066406 -0.16492188 3.87066406 -0.078125 2.3359375 C-0.03945313 1.17964844 -0.03945313 1.17964844 0 0 Z " fill="#0E3E5D" transform="translate(805,712)"/>
<path d="M0 0 C1.64671412 0.30782496 3.29235576 0.62139234 4.9375 0.9375 C5.85402344 1.11152344 6.77054687 1.28554688 7.71484375 1.46484375 C10 2 10 2 11 3 C13.25543624 3.24261665 15.50945523 3.38332133 17.7734375 3.5234375 C20.39073204 4.08363037 21.3173393 4.96995128 23 7 C16.26795268 7.25645895 10.0986393 6.28162548 3.5 5 C2.48679687 4.80921875 1.47359375 4.6184375 0.4296875 4.421875 C-2.04817439 3.95435389 -4.52458268 3.48026672 -7 3 C-7 2.67 -7 2.34 -7 2 C-3.535 1.505 -3.535 1.505 0 1 C0 0.67 0 0.34 0 0 Z " fill="#40677F" transform="translate(482,472)"/>
<path d="M0 0 C0.33 0 0.66 0 1 0 C1.01981934 0.59723877 1.03963867 1.19447754 1.06005859 1.80981445 C1.52644317 15.28472123 2.39099549 28.61245758 4 42 C1.03 41.34 -1.94 40.68 -5 40 C-5 39.67 -5 39.34 -5 39 C-2.69 39 -0.38 39 2 39 C2 37.68 2 36.36 2 35 C1.34 35 0.68 35 0 35 C-1.1802738 31.4591786 -1.0238386 28.37644627 -0.87890625 24.70703125 C-0.85529526 24.00100266 -0.83168427 23.29497406 -0.80735779 22.56755066 C-0.73087055 20.31565493 -0.64678253 18.06411613 -0.5625 15.8125 C-0.50926432 14.28452259 -0.45652401 12.75652784 -0.40429688 11.22851562 C-0.27527576 7.48545165 -0.13943788 3.74268981 0 0 Z " fill="#587A8F" transform="translate(464,473)"/>
<path d="M0 0 C0.66 0.33 1.32 0.66 2 1 C1.67 1.99 1.34 2.98 1 4 C0.34 4 -0.32 4 -1 4 C-1.33 5.32 -1.66 6.64 -2 8 C-3.32 8.33 -4.64 8.66 -6 9 C-6 9.99 -6 10.98 -6 12 C-6 12.66 -6 13.32 -6 14 C-6.66 14 -7.32 14 -8 14 C-8 14.66 -8 15.32 -8 16 C-9.65 15.67 -11.3 15.34 -13 15 C-12.51181711 10.75936653 -11.48221736 9.05233989 -8.1875 6.375 C-7.50042969 5.80523437 -6.81335938 5.23546875 -6.10546875 4.6484375 C-4.09025427 3.0706629 -2.05575508 1.52449253 0 0 Z " fill="#1B4E6F" transform="translate(476,358)"/>
<path d="M0 0 C0 0.33 0 0.66 0 1 C-1.45853394 1.03758423 -1.45853394 1.03758423 -2.9465332 1.07592773 C-6.60516245 1.17115323 -10.26365172 1.27107716 -13.92211914 1.37231445 C-15.49597872 1.41523351 -17.06987213 1.456932 -18.64379883 1.49731445 C-27.46346071 1.72446632 -36.2239407 2.02141355 -45 3 C-45 3.66 -45 4.32 -45 5 C-47.97 4.505 -47.97 4.505 -51 4 C-37.03933604 -3.75953183 -15.37709155 -1.26520374 0 0 Z " fill="#6B8CA1" transform="translate(577,332)"/>
<path d="M0 0 C0.66 0.33 1.32 0.66 2 1 C1.6169767 3.53342553 1.23640386 4.76417273 -0.6015625 6.59765625 C-4.91841884 9.72279356 -8.92443992 12.30814664 -14 14 C-14.99 13.67 -15.98 13.34 -17 13 C-17 12.34 -17 11.68 -17 11 C-15.35 11 -13.7 11 -12 11 C-11.67 10.01 -11.34 9.02 -11 8 C-9.02 7.67 -7.04 7.34 -5 7 C-5 6.34 -5 5.68 -5 5 C-3.68 5 -2.36 5 -1 5 C-0.67 3.35 -0.34 1.7 0 0 Z " fill="#46677D" transform="translate(801,743)"/>
<path d="M0 0 C4.3958194 -0.02907584 8.79161399 -0.0468244 13.1875 -0.0625 C14.43337891 -0.07087891 15.67925781 -0.07925781 16.96289062 -0.08789062 C18.16494141 -0.09111328 19.36699219 -0.09433594 20.60546875 -0.09765625 C22.26292114 -0.10551147 22.26292114 -0.10551147 23.95385742 -0.11352539 C26.75799379 -0.00901923 29.27417329 0.35902041 32 1 C31.67 1.99 31.34 2.98 31 4 C23.99415041 4.17387838 17.36390495 3.5176452 10.4375 2.5 C9.42880859 2.35691406 8.42011719 2.21382813 7.38085938 2.06640625 C4.91972198 1.7164815 2.4595452 1.36091674 0 1 C0 0.67 0 0.34 0 0 Z " fill="#497188" transform="translate(505,417)"/>
<path d="M0 0 C10.67271277 1.62869046 21.33669775 3.31098697 32 5 C32 5.33 32 5.66 32 6 C23.40400201 6.22588024 15.39817396 5.91958262 7 4 C7 3.34 7 2.68 7 2 C5.35 2.33 3.7 2.66 2 3 C2 2.34 2 1.68 2 1 C1.34 0.67 0.68 0.34 0 0 Z " fill="#4E758E" transform="translate(478,452)"/>
<path d="M0 0 C0.66 0.99 1.32 1.98 2 3 C1.01 4.485 1.01 4.485 0 6 C-0.51697441 7.44536302 -0.99365062 8.90553257 -1.4375 10.375 C-2.5822231 13.90695973 -3.74867777 16.99823702 -6 20 C-6.99 20.33 -7.98 20.66 -9 21 C-7.09718835 13.30529677 -4.00712657 6.82119281 0 0 Z " fill="#3C607A" transform="translate(458,408)"/>
<path d="M0 0 C3.95813153 1.52927809 6.68940371 4.17830695 9.75 7.0625 C9.42 7.7225 9.09 8.3825 8.75 9.0625 C6.75045254 9.10504356 4.74958364 9.10330783 2.75 9.0625 C1.75 8.0625 1.75 8.0625 1.6875 5.5 C1.708125 4.695625 1.72875 3.89125 1.75 3.0625 C-0.56 3.0625 -2.87 3.0625 -5.25 3.0625 C-3.5680928 0.84946421 -2.83608903 0.07878025 0 0 Z " fill="#2A5A7A" transform="translate(791.25,733.9375)"/>
<path d="M0 0 C-3.68806476 2.45870984 -7.27805286 3.45051883 -11.5 4.6875 C-12.65822266 5.04424805 -12.65822266 5.04424805 -13.83984375 5.40820312 C-14.58363281 5.62798828 -15.32742188 5.84777344 -16.09375 6.07421875 C-16.77115234 6.27619873 -17.44855469 6.47817871 -18.14648438 6.6862793 C-20 7 -20 7 -23 6 C-22 4 -22 4 -20.0625 3 C-16.4823706 1.83097815 -12.90890579 1.1363982 -9.20703125 0.46484375 C-3.29488914 -0.78036848 -3.29488914 -0.78036848 0 0 Z " fill="#3B637C" transform="translate(647,408)"/>
<path d="M0 0 C0.99 0 1.98 0 3 0 C1.125 4.75 1.125 4.75 0 7 C17.325 6.505 17.325 6.505 35 6 C35 6.66 35 7.32 35 8 C23.12 8 11.24 8 -1 8 C-1 1 -1 1 0 0 Z " fill="#4E748B" transform="translate(754,706)"/>
<path d="M0 0 C4.75503322 14.50838044 4.75503322 14.50838044 5 21 C4.34 21.66 3.68 22.32 3 23 C3 20.36 3 17.72 3 15 C2.34 15 1.68 15 1 15 C0.34 11.37 -0.32 7.74 -1 4 C-2.32 3.67 -3.64 3.34 -5 3 C-2.25 0 -2.25 0 0 0 Z " fill="#668597" transform="translate(695,431)"/>
<path d="M0 0 C2.66735273 2.48952921 4.55746343 4.63408134 6 8 C2.72477948 8 0.98539277 7.27945405 -2 6 C-2.928125 5.62875 -3.85625 5.2575 -4.8125 4.875 C-5.534375 4.58625 -6.25625 4.2975 -7 4 C-7 3.34 -7 2.68 -7 2 C-7.66 1.67 -8.32 1.34 -9 1 C-7.700625 1.020625 -6.40125 1.04125 -5.0625 1.0625 C-3.70834367 1.08399454 -2.35243917 1.07148199 -1 1 C-0.67 0.67 -0.34 0.34 0 0 Z " fill="#0E466A" transform="translate(675,394)"/>
<path d="M0 0 C5.75535478 0.37090064 9.85061203 1.25365975 15 4 C18.2366963 4.70758326 18.2366963 4.70758326 21 5 C20.67 5.99 20.34 6.98 20 8 C12.99102311 6.27068234 6.49711809 4.16032658 0 1 C0 0.67 0 0.34 0 0 Z " fill="#335D76" transform="translate(511,722)"/>
<path d="M0 0 C5.66119511 1.61748432 8.47327121 5.31004928 11.3125 10.3125 C12.30968911 14.21060288 12.15689329 17.99922098 12 22 C11.67 22 11.34 22 11 22 C10.89042969 21.32453125 10.78085937 20.6490625 10.66796875 19.953125 C10.50941406 19.06109375 10.35085938 18.1690625 10.1875 17.25 C10.03667969 16.36828125 9.88585937 15.4865625 9.73046875 14.578125 C8.94333232 11.79999644 7.77635698 10.23869646 6 8 C6 7.34 6 6.68 6 6 C5.01 6 4.02 6 3 6 C3 5.34 3 4.68 3 4 C2.34 4 1.68 4 1 4 C0.67 2.68 0.34 1.36 0 0 Z " fill="#608297" transform="translate(545,717)"/>
<path d="M0 0 C5.49596079 7.32794772 5.30000984 15.08304081 5 24 C4.34 24.33 3.68 24.66 3 25 C2.67 20.71 2.34 16.42 2 12 C1.67 12 1.34 12 1 12 C0.67 8.04 0.34 4.08 0 0 Z " fill="#6C8699" transform="translate(803,702)"/>
<path d="M0 0 C-2.93580566 1.95720377 -3.89822836 2.30195175 -7.23046875 2.6328125 C-8.03291016 2.71660156 -8.83535156 2.80039062 -9.66210938 2.88671875 C-10.91217773 3.00466797 -10.91217773 3.00466797 -12.1875 3.125 C-13.4549707 3.25455078 -13.4549707 3.25455078 -14.74804688 3.38671875 C-16.83128923 3.5985739 -18.91556042 3.80026777 -21 4 C-21 3.01 -21 2.02 -21 1 C-18.62625224 0.63457573 -16.25173828 0.28243861 -13.875 -0.0625 C-12.87726562 -0.2181543 -12.87726562 -0.2181543 -11.859375 -0.37695312 C-7.65885188 -0.97408631 -4.13930366 -0.92199443 0 0 Z " fill="#365F79" transform="translate(613,396)"/>
<path d="M0 0 C0.58265625 0.23976563 1.1653125 0.47953125 1.765625 0.7265625 C9.03218937 3.3544081 14.56110111 2.77664424 22 1 C20 4 20 4 17.609375 4.73046875 C4.2392755 6.86749285 4.2392755 6.86749285 1.125 4.6875 C0 3 0 3 0 0 Z " fill="#4C718A" transform="translate(594,736)"/>
<path d="M0 0 C2.0622048 -0.054348 4.12482816 -0.09294961 6.1875 -0.125 C7.33605469 -0.14820313 8.48460937 -0.17140625 9.66796875 -0.1953125 C12.91740372 -0.00484152 15.08660521 0.60639873 18 2 C17.25 9.625 17.25 9.625 15 13 C13.94595055 9.01803543 14.15901344 6.01804691 15 2 C13.2365625 2.0309375 13.2365625 2.0309375 11.4375 2.0625 C7.52586533 2.06947261 3.85502056 1.64250343 0 1 C0 0.67 0 0.34 0 0 Z " fill="#5A788D" transform="translate(848,683)"/>
<path d="M0 0 C-3.3733307 2.80688169 -7.05975931 4.53750866 -11.0625 6.25 C-11.68705078 6.53101563 -12.31160156 6.81203125 -12.95507812 7.1015625 C-17.63800023 9.12066659 -17.63800023 9.12066659 -21 8 C-20.67 7.34 -20.34 6.68 -20 6 C-17.4375 5.375 -17.4375 5.375 -15 5 C-15 4.67 -15 4.34 -15 4 C-13.35 3.67 -11.7 3.34 -10 3 C-10 2.34 -10 1.68 -10 1 C-6.78548731 -0.60725635 -3.56387464 -0.05748185 0 0 Z " fill="#416881" transform="translate(688,459)"/>
<path d="M0 0 C1.03447266 0.12568359 1.03447266 0.12568359 2.08984375 0.25390625 C8.2993459 0.92681526 13.82141232 0.9115949 20 0 C20 0.66 20 1.32 20 2 C13.56986533 3.73955334 7.65050424 4.24991456 1 4 C0.67 2.68 0.34 1.36 0 0 Z " fill="#4B738E" transform="translate(516,739)"/>
<path d="M0 0 C0.5744341 2.21567438 1.0314192 4.29162326 1.27734375 6.57421875 C1.78887648 9.15924693 1.78887648 9.15924693 4.06640625 10.58203125 C4.89011719 10.98808594 5.71382813 11.39414062 6.5625 11.8125 C7.38878906 12.23144531 8.21507812 12.65039062 9.06640625 13.08203125 C9.70449219 13.38496094 10.34257812 13.68789063 11 14 C10.01 14.66 9.02 15.32 8 16 C7.34 15.67 6.68 15.34 6 15 C6 14.34 6 13.68 6 13 C5.21625 12.855625 4.4325 12.71125 3.625 12.5625 C1 12 1 12 -1 11 C-1.66 12.65 -2.32 14.3 -3 16 C-4.49828872 12.11764181 -3.43110582 9.56550712 -2.0625 5.75 C-1.68222656 4.67234375 -1.30195313 3.5946875 -0.91015625 2.484375 C-0.45962891 1.25460937 -0.45962891 1.25460937 0 0 Z " fill="#597C90" transform="translate(427,423)"/>
<path d="M0 0 C-0.33 0.99 -0.66 1.98 -1 3 C-2.0725 3.103125 -3.145 3.20625 -4.25 3.3125 C-7.90408158 3.66606343 -7.90408158 3.66606343 -9.84375 5.53125 C-12.75386185 7.5135001 -14.76841797 7.30102985 -18.25 7.1875 C-19.86648438 7.14689453 -19.86648438 7.14689453 -21.515625 7.10546875 C-22.74539063 7.05326172 -22.74539063 7.05326172 -24 7 C-19.94545492 4.8694828 -15.82073687 3.64743332 -11.4375 2.375 C-10.66986328 2.14554687 -9.90222656 1.91609375 -9.11132812 1.6796875 C-8.37205078 1.463125 -7.63277344 1.2465625 -6.87109375 1.0234375 C-6.20005615 0.82669434 -5.52901855 0.62995117 -4.83764648 0.42724609 C-3 0 -3 0 0 0 Z " fill="#3D657E" transform="translate(642,387)"/>
<path d="M0 0 C1.65 0.33 3.3 0.66 5 1 C5 1.66 5 2.32 5 3 C5.99 3.33 6.98 3.66 8 4 C6.02 4.33 4.04 4.66 2 5 C1.70996094 6.06541016 1.70996094 6.06541016 1.4140625 7.15234375 C1.15367187 8.07144531 0.89328125 8.99054688 0.625 9.9375 C0.36976563 10.85402344 0.11453125 11.77054687 -0.1484375 12.71484375 C-1 15 -1 15 -3 16 C-2.69075786 13.89535207 -2.3774944 11.7912947 -2.0625 9.6875 C-1.88847656 8.51574219 -1.71445312 7.34398437 -1.53515625 6.13671875 C-1 3 -1 3 0 0 Z " fill="#093F61" transform="translate(425,433)"/>
<path d="M0 0 C1.59373901 2.39060851 2.65297076 4.30828179 3.6875 6.9375 C3.95949219 7.60652344 4.23148438 8.27554687 4.51171875 8.96484375 C5.0787676 11.32830338 4.76024003 12.7192799 4 15 C3.0165504 13.56542672 2.03839079 12.12722594 1.0625 10.6875 C0.51722656 9.88699219 -0.02804687 9.08648437 -0.58984375 8.26171875 C-2 6 -2 6 -3 3 C-2.01 2.01 -1.02 1.02 0 0 Z " fill="#657F8C" transform="translate(689,415)"/>
<path d="M0 0 C0.76570312 0.61488281 0.76570312 0.61488281 1.546875 1.2421875 C7.78639726 5.86651428 13.32963047 7.24723954 21 8 C21 8.33 21 8.66 21 9 C8.36784174 10.88029419 8.36784174 10.88029419 5.02734375 8.73046875 C3.75 7.0625 3.75 7.0625 2 4 C1.34 4 0.68 4 0 4 C0 2.68 0 1.36 0 0 Z " fill="#456E87" transform="translate(892,732)"/>
<path d="M0 0 C1.68496298 0.96885372 3.35178756 1.96986723 5 3 C5 3.33 5 3.66 5 4 C3.4221875 4.433125 3.4221875 4.433125 1.8125 4.875 C-1.85694016 5.86283807 -1.85694016 5.86283807 -4.625 7.1875 C-7.47515345 8.1625525 -9.14114137 7.81681675 -12 7 C-9.47764868 5.31843245 -6.96413358 3.83531994 -4.3125 2.375 C-3.50425781 1.92898438 -2.69601562 1.48296875 -1.86328125 1.0234375 C-1.24839844 0.68570313 -0.63351562 0.34796875 0 0 Z " fill="#456C82" transform="translate(927,733)"/>
<path d="M0 0 C0.33 0.66 0.66 1.32 1 2 C1.99 1.67 2.98 1.34 4 1 C7 4.75 7 4.75 7 7 C7.7425 6.95875 8.485 6.9175 9.25 6.875 C12.13532225 7.00615101 13.62533337 7.38861907 16 9 C16.33 9.99 16.66 10.98 17 12 C11.23916729 10.27566912 5.9346239 8.4953586 1 5 C0.0625 2.25 0.0625 2.25 0 0 Z " fill="#446981" transform="translate(442,500)"/>
<path d="M0 0 C0 0.33 0 0.66 0 1 C-1.12019531 1.13277344 -2.24039063 1.26554687 -3.39453125 1.40234375 C-4.86720729 1.58056569 -6.33986247 1.75896011 -7.8125 1.9375 C-8.55048828 2.02451172 -9.28847656 2.11152344 -10.04882812 2.20117188 C-13.16733121 2.58216546 -16.01108122 3.00369374 -19 4 C-20.72795352 4.06802967 -22.45835365 4.08495645 -24.1875 4.0625 C-25.53908203 4.04896484 -25.53908203 4.04896484 -26.91796875 4.03515625 C-27.60503906 4.02355469 -28.29210937 4.01195312 -29 4 C-29 3.34 -29 2.68 -29 2 C-19.29046527 0.71153094 -9.81996112 -0.34057669 0 0 Z " fill="#0E3C5D" transform="translate(619,458)"/>
<path d="M0 0 C-1.98 0.99 -1.98 0.99 -4 2 C-4.33 1.34 -4.66 0.68 -5 0 C-9.62 0 -14.24 0 -19 0 C-19 0.66 -19 1.32 -19 2 C-22.3 2.33 -25.6 2.66 -29 3 C-19.72152054 -3.18565297 -10.42359064 -1.89662326 0 0 Z " fill="#7392A3" transform="translate(920,684)"/>
<path d="M0 0 C3.465 1.98 3.465 1.98 7 4 C6.67 4.99 6.34 5.98 6 7 C6.66 7.66 7.32 8.32 8 9 C7.67 9.66 7.34 10.32 7 11 C4.13496932 9.7156759 1.84572295 8.58401213 0 6 C-0.1875 2.8125 -0.1875 2.8125 0 0 Z " fill="#1A4D6C" transform="translate(504,711)"/>
<path d="M0 0 C0.99 0.33 1.98 0.66 3 1 C2.0008343 3.6900615 0.96219918 6.06048132 -0.5625 8.5 C-2.03262759 11.05674363 -2.58575164 13.10026145 -3 16 C-3.33 16 -3.66 16 -4 16 C-4.07654536 11.48382401 -4.10228696 7.40914783 -3 3 C-2.34 3 -1.68 3 -1 3 C-0.67 2.01 -0.34 1.02 0 0 Z " fill="#0B4060" transform="translate(739,704)"/>
<path d="M0 0 C0.66 0.33 1.32 0.66 2 1 C1.3503125 1.62648438 0.700625 2.25296875 0.03125 2.8984375 C-1.22171875 4.12433594 -1.22171875 4.12433594 -2.5 5.375 C-3.3353125 6.18710937 -4.170625 6.99921875 -5.03125 7.8359375 C-7.22431286 9.7589659 -7.22431286 9.7589659 -7 12 C-8.96147874 13.38938077 -10.96166576 14.7260411 -13 16 C-11.64321859 12.02807513 -9.88322256 9.40636515 -7.0625 6.3125 C-6.02802734 5.16201172 -6.02802734 5.16201172 -4.97265625 3.98828125 C-3 2 -3 2 0 0 Z " fill="#4E4E4E" transform="translate(428,688)"/>
<path d="M0 0 C4.12172083 3.76843047 7.63068221 7.88904305 10 13 C9.67 13.66 9.34 14.32 9 15 C3.16286899 10.55870467 1.25203694 7.30354882 0 0 Z " fill="#406580" transform="translate(673,387)"/>
<path d="M0 0 C3.45925163 1.2491742 6.14693203 2.67527795 9 5 C8.01 5.33 7.02 5.66 6 6 C6 5.34 6 4.68 6 4 C5.01 4.33 4.02 4.66 3 5 C2.01 4.67 1.02 4.34 0 4 C-0.268125 4.639375 -0.53625 5.27875 -0.8125 5.9375 C-2 8 -2 8 -5 9 C-3.7508258 5.54074837 -2.32472205 2.85306797 0 0 Z " fill="#4A6F85" transform="translate(507,734)"/>
<path d="M0 0 C1.32 0.33 2.64 0.66 4 1 C2.56771184 2.31818554 1.12897516 3.62936704 -0.3125 4.9375 C-1.11300781 5.66839844 -1.91351562 6.39929688 -2.73828125 7.15234375 C-5 9 -5 9 -8 10 C-8 9.01 -8 8.02 -8 7 C-7.01 7 -6.02 7 -5 7 C-5.33 5.68 -5.66 4.36 -6 3 C-4.35 3 -2.7 3 -1 3 C-0.67 2.01 -0.34 1.02 0 0 Z " fill="#315976" transform="translate(632,744)"/>
<path d="M0 0 C0 0.99 0 1.98 0 3 C-1.4609375 4.38671875 -1.4609375 4.38671875 -3.375 5.6875 C-4.00148438 6.12449219 -4.62796875 6.56148437 -5.2734375 7.01171875 C-7 8 -7 8 -9 8 C-9.33 8.66 -9.66 9.32 -10 10 C-10.66 10 -11.32 10 -12 10 C-10.43795274 5.78247239 -7.54865748 3.62600654 -4 1 C-1.625 0.1875 -1.625 0.1875 0 0 Z " fill="#3C617D" transform="translate(890,688)"/>
<path d="M0 0 C3.21391447 -0.0892754 5.91489883 0.10432547 9 1 C9.7425 1.185625 10.485 1.37125 11.25 1.5625 C11.8275 1.706875 12.405 1.85125 13 2 C13 2.66 13 3.32 13 4 C13.66 4.33 14.32 4.66 15 5 C15.33 4.01 15.66 3.02 16 2 C16 3.32 16 4.64 16 6 C13.69 6 11.38 6 9 6 C8.67 5.01 8.34 4.02 8 3 C7.236875 3.061875 6.47375 3.12375 5.6875 3.1875 C3 3 3 3 1.1875 1.5 C0.5996875 0.7575 0.5996875 0.7575 0 0 Z " fill="#0D3F60" transform="translate(450,506)"/>
<path d="M0 0 C0.33 0.99 0.66 1.98 1 3 C-1.43226526 7.30323854 -4.41897159 10.61791761 -8 14 C-8.66 13.67 -9.32 13.34 -10 13 C-10 12.34 -10 11.68 -10 11 C-9.01 11 -8.02 11 -7 11 C-6.67 9.35 -6.34 7.7 -6 6 C-5.34 6 -4.68 6 -4 6 C-4 5.34 -4 4.68 -4 4 C-3.01 4 -2.02 4 -1 4 C-0.67 2.68 -0.34 1.36 0 0 Z " fill="#42687F" transform="translate(555,740)"/>
<path d="M0 0 C5.80165739 0.97458672 10.83982722 2.01253155 16 5 C15.01 5.66 14.02 6.32 13 7 C13 6.34 13 5.68 13 5 C10.03 5 7.06 5 4 5 C4 4.34 4 3.68 4 3 C3.34 3 2.68 3 2 3 C2 2.34 2 1.68 2 1 C1.34 0.67 0.68 0.34 0 0 Z " fill="#315C78" transform="translate(529,711)"/>
<path d="M0 0 C-0.33 0.99 -0.66 1.98 -1 3 C-1.90363281 3.13277344 -2.80726563 3.26554688 -3.73828125 3.40234375 C-5.50751953 3.66724609 -5.50751953 3.66724609 -7.3125 3.9375 C-9.07013672 4.19853516 -9.07013672 4.19853516 -10.86328125 4.46484375 C-14.01641403 4.92093031 -14.01641403 4.92093031 -17 6 C-17 5.01 -17 4.02 -17 3 C-11.42531458 -0.61601216 -6.39432346 -0.30720059 0 0 Z " fill="#3F6983" transform="translate(913,698)"/>
<path d="M0 0 C0.8971875 0.5259375 0.8971875 0.5259375 1.8125 1.0625 C1.26980469 1.28164063 0.72710938 1.50078125 0.16796875 1.7265625 C-3.84882362 3.50697858 -5.81926714 4.4641216 -8.1875 8.3125 C-8.5175 9.22 -8.8475 10.1275 -9.1875 11.0625 C-9.5175 11.0625 -9.8475 11.0625 -10.1875 11.0625 C-10.5 8.375 -10.5 8.375 -10.1875 5.0625 C-4.45510563 -1.90933099 -4.45510563 -1.90933099 0 0 Z " fill="#3F6783" transform="translate(849.1875,702.9375)"/>
<path d="M0 0 C2.97 0.495 2.97 0.495 6 1 C6 2.32 6 3.64 6 5 C3.23723823 4.47731534 0.6739124 3.89130413 -2 3 C-4.05893621 2.77674186 -6.12233653 2.59294241 -8.1875 2.4375 C-9.81751953 2.31181641 -9.81751953 2.31181641 -11.48046875 2.18359375 C-12.31191406 2.12300781 -13.14335938 2.06242188 -14 2 C-14 1.67 -14 1.34 -14 1 C-9.38 1 -4.76 1 0 1 C0 0.67 0 0.34 0 0 Z " fill="#547A90" transform="translate(538,699)"/>
<path d="M0 0 C0.928125 0.515625 1.85625 1.03125 2.8125 1.5625 C2.8125 2.5525 2.8125 3.5425 2.8125 4.5625 C3.8025 4.5625 4.7925 4.5625 5.8125 4.5625 C5.4825 5.5525 5.1525 6.5425 4.8125 7.5625 C0.52772208 5.25531189 -2.91041137 3.23283927 -6.1875 -0.4375 C-3.1875 -1.4375 -3.1875 -1.4375 0 0 Z " fill="#305C77" transform="translate(638.1875,375.4375)"/>
<path d="M0 0 C4.33168317 -0.26252625 7.8803623 0.70756464 12 2 C12 3.65 12 5.3 12 7 C7.69235185 5.43358249 3.93828536 3.31663844 0 1 C0 0.67 0 0.34 0 0 Z " fill="#345D79" transform="translate(427,456)"/>
<path d="M0 0 C1.32 0.33 2.64 0.66 4 1 C3.24203125 1.83144531 3.24203125 1.83144531 2.46875 2.6796875 C1.8190625 3.40414063 1.169375 4.12859375 0.5 4.875 C-0.1496875 5.59429687 -0.799375 6.31359375 -1.46875 7.0546875 C-3.20617272 8.84931098 -3.20617272 8.84931098 -3 11 C-3.99 11.33 -4.98 11.66 -6 12 C-5.67 9.69 -5.34 7.38 -5 5 C-4.01 5 -3.02 5 -2 5 C-1.34 3.35 -0.68 1.7 0 0 Z " fill="#3A6780" transform="translate(501,383)"/>
<path d="M0 0 C3.89414661 3.72483589 3.89414661 3.72483589 4.16796875 7.0234375 C4.17441406 7.79945313 4.18085937 8.57546875 4.1875 9.375 C4.20167969 10.14585937 4.21585938 10.91671875 4.23046875 11.7109375 C3.97801607 14.21834888 3.25193467 15.83261902 2 18 C1.34 18 0.68 18 0 18 C0.495 16.515 0.495 16.515 1 15 C1.32951714 9.91186764 1.02563831 4.99998678 0 0 Z " fill="#174462" transform="translate(552,726)"/>
<path d="M0 0 C4.88927054 7.3339058 4.23310637 15.50456802 4 24 C3.67 24 3.34 24 3 24 C2.67 18.72 2.34 13.44 2 8 C1.34 8 0.68 8 0 8 C0 5.36 0 2.72 0 0 Z " fill="#638598" transform="translate(940,703)"/>
<path d="M0 0 C0.75410156 0.00451172 1.50820313 0.00902344 2.28515625 0.01367188 C4.14847127 0.02546501 6.01174555 0.04340058 7.875 0.0625 C5.04424074 2.89325926 2.81914554 2.53770297 -1.125 2.8125 C-2.383125 2.91046875 -3.64125 3.0084375 -4.9375 3.109375 C-8.125 3.0625 -8.125 3.0625 -10.125 1.0625 C-6.93675432 -0.53162284 -3.49603338 -0.03924735 0 0 Z " fill="#0F405E" transform="translate(770.125,697.9375)"/>
<path d="M0 0 C3.62276315 1.3255581 6.63505348 2.94346955 9.8125 5.125 C10.60269531 5.66382813 11.39289062 6.20265625 12.20703125 6.7578125 C12.79871094 7.16773438 13.39039063 7.57765625 14 8 C13.34 8.66 12.68 9.32 12 10 C10 8.625 10 8.625 8 7 C8 6.34 8 5.68 8 5 C6.8553125 4.814375 6.8553125 4.814375 5.6875 4.625 C3 4 3 4 0 2 C0 1.34 0 0.68 0 0 Z " fill="#487088" transform="translate(630,350)"/>
<path d="M0 0 C1.0625 1.8125 1.0625 1.8125 2 4 C1.67 4.99 1.34 5.98 1 7 C0.34 7 -0.32 7 -1 7 C-1.66 8.32 -2.32 9.64 -3 11 C-5.64 10.67 -8.28 10.34 -11 10 C-9 8 -9 8 -5.375 7.875 C-3.704375 7.936875 -3.704375 7.936875 -2 8 C-2 7.34 -2 6.68 -2 6 C-1.34 6 -0.68 6 0 6 C0 4.02 0 2.04 0 0 Z " fill="#0D3F5F" transform="translate(538,733)"/>
<path d="M0 0 C4.39683488 1.19913678 7.09840934 2.4288115 10 6 C10 6.66 10 7.32 10 8 C6.01328937 6.63312778 3.11505367 4.84804907 0 2 C0 1.34 0 0.68 0 0 Z " fill="#3D647F" transform="translate(743,745)"/>
<path d="M0 0 C0.7666577 2.81746704 1.21809591 5.53288109 1.5 8.4375 C1.83647938 11.67411117 2.28225756 14.82142634 3 18 C0.4375 16.125 0.4375 16.125 -2 13 C-2.26687668 8.47030939 -1.42752856 4.28258568 0 0 Z " fill="#587D92" transform="translate(587,714)"/>
<path d="M0 0 C2.27141109 0.11402064 4.54214552 0.24158505 6.8125 0.375 C8.07707031 0.44460938 9.34164062 0.51421875 10.64453125 0.5859375 C14 1 14 1 17 3 C17 3.66 17 4.32 17 5 C15.865625 4.67 14.73125 4.34 13.5625 4 C9.00204151 2.84152933 4.67838994 2.80506709 0 3 C0 2.01 0 1.02 0 0 Z " fill="#4A7087" transform="translate(600,699)"/>
<path d="M0 0 C4.3219559 1.22319507 7.63598173 3.40872728 11.3125 5.9375 C8.6458581 7.27082095 7.14569697 6.60852033 4.3125 5.9375 C4.3125 5.2775 4.3125 4.6175 4.3125 3.9375 C3.3225 3.9375 2.3325 3.9375 1.3125 3.9375 C1.3125 3.2775 1.3125 2.6175 1.3125 1.9375 C-0.9975 1.9375 -3.3075 1.9375 -5.6875 1.9375 C-2.6875 -0.0625 -2.6875 -0.0625 0 0 Z " fill="#4F738D" transform="translate(782.6875,684.0625)"/>
<path d="M0 0 C5.26170694 1.41167747 8.72171358 3.74850232 13 7 C10 8 10 8 8 8 C8 7.01 8 6.02 8 5 C7.05125 4.9175 6.1025 4.835 5.125 4.75 C2 4 2 4 0.625 1.9375 C0.41875 1.298125 0.2125 0.65875 0 0 Z " fill="#486B83" transform="translate(920,685)"/>
<path d="M0 0 C1.32 0 2.64 0 4 0 C4 0.99 4 1.98 4 3 C-2.625 6.125 -2.625 6.125 -6 5 C-6 4.34 -6 3.68 -6 3 C-4.35 3 -2.7 3 -1 3 C-0.67 2.01 -0.34 1.02 0 0 Z " fill="#3B617A" transform="translate(790,751)"/>
<path d="M0 0 C-7.42857143 4.42857143 -7.42857143 4.42857143 -11 5 C-11 4.34 -11 3.68 -11 3 C-11.66 2.67 -12.32 2.34 -13 2 C-11.39935157 1.46845258 -9.79431126 0.95011647 -8.1875 0.4375 C-7.29417969 0.14746094 -6.40085937 -0.14257812 -5.48046875 -0.44140625 C-3 -1 -3 -1 0 0 Z " fill="#0B4062" transform="translate(668,448)"/>
<path d="M0 0 C2 2 2 2 2 6 C0.68 6 -0.64 6 -2 6 C-1.34 6.33 -0.68 6.66 0 7 C0 8.65 0 10.3 0 12 C-1.32 11.34 -2.64 10.68 -4 10 C-3.67 8.35 -3.34 6.7 -3 5 C-2.34 5 -1.68 5 -1 5 C-0.67 3.35 -0.34 1.7 0 0 Z " fill="#144663" transform="translate(437,403)"/>
<path d="M0 0 C1.258125 0.12375 2.51625 0.2475 3.8125 0.375 C4.87404297 0.47941406 4.87404297 0.47941406 5.95703125 0.5859375 C8 1 8 1 11 3 C11.6875 5.125 11.6875 5.125 12 7 C7.69235185 5.43358249 3.93828536 3.31663844 0 1 C0 0.67 0 0.34 0 0 Z " fill="#37617C" transform="translate(620,368)"/>
<path d="M0 0 C1.32 0.66 2.64 1.32 4 2 C2.37750059 2.83819158 0.75191503 3.6704116 -0.875 4.5 C-2.23238281 5.19609375 -2.23238281 5.19609375 -3.6171875 5.90625 C-6 7 -6 7 -8 7 C-8 6.01 -8 5.02 -8 4 C-4.91190305 2.23537317 -3.76687864 2 0 2 C0 1.34 0 0.68 0 0 Z " fill="#3B6580" transform="translate(533,361)"/>
<path d="M0 0 C0.969375 0.185625 1.93875 0.37125 2.9375 0.5625 C3.948125 0.706875 4.95875 0.85125 6 1 C6.33 0.67 6.66 0.34 7 0 C7.66 1.32 8.32 2.64 9 4 C8.34 4 7.68 4 7 4 C6.34 5.32 5.68 6.64 5 8 C2.525 4.04 2.525 4.04 0 0 Z " fill="#487087" transform="translate(678,406)"/>
<path d="M0 0 C3.36704285 -0.2295711 5.41370268 -0.33943529 8.375 1.375 C8.91125 1.91125 9.4475 2.4475 10 3 C10 3.66 10 4.32 10 5 C6.44219804 4.39009109 3.3171411 3.4216319 0 2 C0 1.34 0 0.68 0 0 Z " fill="#335D77" transform="translate(608,362)"/>
<path d="M0 0 C5.61 0 11.22 0 17 0 C17 0.66 17 1.32 17 2 C17.66 2.33 18.32 2.66 19 3 C12.73 2.34 6.46 1.68 0 1 C0 0.67 0 0.34 0 0 Z " fill="#5E8199" transform="translate(578,357)"/>
<path d="M0 0 C1.58624235 0.42683239 3.1689098 0.86696158 4.75 1.3125 C6.07257812 1.67794922 6.07257812 1.67794922 7.421875 2.05078125 C10.05772505 3.02125331 11.85407326 4.21005644 14 6 C4.78125 5.0625 4.78125 5.0625 1 3 C0.67 2.01 0.34 1.02 0 0 Z " fill="#446983" transform="translate(608,340)"/>
<path d="M0 0 C0.33 0 0.66 0 1 0 C1.125 7.75 1.125 7.75 0 10 C0.66 10 1.32 10 2 10 C2 11.65 2 13.3 2 15 C1.01 14.67 0.02 14.34 -1 14 C-2.15837573 10.52487282 -1.77265943 8.86329714 -1.0625 5.3125 C-0.86785156 4.31863281 -0.67320312 3.32476562 -0.47265625 2.30078125 C-0.31667969 1.54152344 -0.16070312 0.78226562 0 0 Z " fill="#567991" transform="translate(422,439)"/>
<path d="M0 0 C0.66 0.99 1.32 1.98 2 3 C1.01 4.485 1.01 4.485 0 6 C-0.4640625 7.051875 -0.4640625 7.051875 -0.9375 8.125 C-2 10 -2 10 -5 11 C-3.77472971 6.94718288 -2.30119506 3.55639236 0 0 Z " fill="#49708B" transform="translate(458,408)"/>
<path d="M0 0 C0 0.99 0 1.98 0 3 C0.66 3.33 1.32 3.66 2 4 C-2.37934119 3.48041715 -6.68803391 2.94324258 -11 2 C-11 1.67 -11 1.34 -11 1 C-7.26562152 0.12132271 -3.83225427 -0.08912219 0 0 Z " fill="#466E87" transform="translate(497,412)"/>
<path d="M0 0 C5.69051363 0.5381371 11.34865884 1.1400133 17 2 C17 2.33 17 2.66 17 3 C14.72975032 3.08097324 12.45867925 3.13917704 10.1875 3.1875 C8.29064453 3.23970703 8.29064453 3.23970703 6.35546875 3.29296875 C3 3 3 3 1.05078125 1.48828125 C0.70402344 0.99714844 0.35726563 0.50601562 0 0 Z " fill="#557B90" transform="translate(499,394)"/>
<path d="M0 0 C0.66 0.99 1.32 1.98 2 3 C1.34 3 0.68 3 0 3 C0.66 5.31 1.32 7.62 2 10 C1.01 10.66 0.02 11.32 -1 12 C-1 10.68 -1 9.36 -1 8 C-1.66 8.99 -2.32 9.98 -3 11 C-2.53199289 6.94393835 -2.12046792 3.53411321 0 0 Z " fill="#3F6881" transform="translate(874,702)"/>
<path d="M0 0 C-2.53199972 2.53199972 -4.54559335 3.11946497 -8 4 C-10.875 3.625 -10.875 3.625 -13 3 C-8.8341563 0.22277086 -4.9360889 -1.89849573 0 0 Z " fill="#0B3E60" transform="translate(530,337)"/>
<path d="M0 0 C0 3.64478912 -0.85802506 5.09303401 -3 8 C-5.1875 8.8125 -5.1875 8.8125 -7 9 C-5.44499019 5.18315774 -2.96404505 2.80804268 0 0 Z " fill="#24536E" transform="translate(935,745)"/>
<path d="M0 0 C3.00296082 1.0986442 4.48085688 2.54746531 6.5625 4.9375 C5.5415625 4.7209375 5.5415625 4.7209375 4.5 4.5 C1.19976918 3.86804091 -2.10894426 3.39436059 -5.4375 2.9375 C-3.65599382 0.59341293 -3.01652429 -0.07734678 0 0 Z " fill="#4B6D82" transform="translate(791.4375,734.0625)"/>
<path d="M0 0 C0.33 0.66 0.66 1.32 1 2 C-0.21484375 4.6015625 -0.21484375 4.6015625 -1.9375 7.625 C-2.78634766 9.12933594 -2.78634766 9.12933594 -3.65234375 10.6640625 C-4.09707031 11.43492187 -4.54179688 12.20578125 -5 13 C-6.08784335 9.68604014 -6.07262544 9.16419665 -4.5625 5.75 C-4.046875 4.8425 -3.53125 3.935 -3 3 C-2.34 3 -1.68 3 -1 3 C-0.67 2.01 -0.34 1.02 0 0 Z " fill="#527689" transform="translate(642,731)"/>
<path d="M0 0 C1.32 0.33 2.64 0.66 4 1 C3.01 1 2.02 1 1 1 C1.639375 1.94875 2.27875 2.8975 2.9375 3.875 C5 7 5 7 6 9 C4.35 8.67 2.7 8.34 1 8 C1 6.68 1 5.36 1 4 C0.01 4 -0.98 4 -2 4 C-2 3.34 -2 2.68 -2 2 C-1.34 2 -0.68 2 0 2 C0 1.34 0 0.68 0 0 Z " fill="#5D879D" transform="translate(754,728)"/>
<path d="M0 0 C3.39417765 3.12621626 5.6062718 5.56541027 7 10 C5.35 9.67 3.7 9.34 2 9 C1.34 6.03 0.68 3.06 0 0 Z " fill="#3E6982" transform="translate(933,693)"/>
<path d="M0 0 C0 1.32 0 2.64 0 4 C-1.32 4.33 -2.64 4.66 -4 5 C-4.33 6.32 -4.66 7.64 -5 9 C-5.33 7.02 -5.66 5.04 -6 3 C-2.25 0 -2.25 0 0 0 Z " fill="#07456A" transform="translate(445,396)"/>
<path d="M0 0 C3.11223313 4.14964417 3.52003578 6.00837213 4 11 C3.01 11.33 2.02 11.66 1 12 C0.67 8.04 0.34 4.08 0 0 Z " fill="#4F738D" transform="translate(803,702)"/>
<path d="M0 0 C0 0.99 0 1.98 0 3 C-7.425 2.01 -7.425 2.01 -15 1 C-15 0.67 -15 0.34 -15 0 C-4.44191344 -1.33257403 -4.44191344 -1.33257403 0 0 Z " fill="#53768C" transform="translate(781,700)"/>
<path d="M0 0 C3.37462715 0.54723683 5.08235 1.0549 8 3 C8 3.99 8 4.98 8 6 C8.99 6.33 9.98 6.66 11 7 C9.125 7.625 9.125 7.625 7 8 C6.34 7.34 5.68 6.68 5 6 C5.66 6 6.32 6 7 6 C7 5.34 7 4.68 7 4 C5.35 3.67 3.7 3.34 2 3 C2 2.34 2 1.68 2 1 C1.34 0.67 0.68 0.34 0 0 Z " fill="#305A74" transform="translate(542,685)"/>
<path d="M0 0 C-0.33 1.32 -0.66 2.64 -1 4 C-3.64 4.66 -6.28 5.32 -9 6 C-3.15384615 0 -3.15384615 0 0 0 Z " fill="#386179" transform="translate(755,687)"/>
<path d="M0 0 C-0.33 2.97 -0.66 5.94 -1 9 C-1.99 8.01 -2.98 7.02 -4 6 C-4.99 5.67 -5.98 5.34 -7 5 C-2.25 0 -2.25 0 0 0 Z " fill="#636363" transform="translate(699,497)"/>
<path d="M0 0 C0.33 0 0.66 0 1 0 C1 4.29 1 8.58 1 13 C1.66 13 2.32 13 3 13 C2.67 14.98 2.34 16.96 2 19 C-0.44989101 15.25764681 -0.23086143 11.55774581 -0.125 7.25 C-0.11597656 6.55261719 -0.10695313 5.85523438 -0.09765625 5.13671875 C-0.07419888 3.42433042 -0.03833104 1.71211996 0 0 Z " fill="#7792AB" transform="translate(870,713)"/>
<path d="M0 0 C0.75 1.625 0.75 1.625 1 4 C-0.8125 7.25 -0.8125 7.25 -3 10 C-3.66 10 -4.32 10 -5 10 C-3.84414715 6.08788267 -2.64465038 3.1254959 0 0 Z " fill="#476A83" transform="translate(741,697)"/>
<path d="M0 0 C0.33 0 0.66 0 1 0 C1.33 3.3 1.66 6.6 2 10 C-2.455 9.01 -2.455 9.01 -7 8 C-7 7.67 -7 7.34 -7 7 C-4.69 7 -2.38 7 0 7 C0 4.69 0 2.38 0 0 Z " fill="#66808E" transform="translate(466,505)"/>
<path d="M0 0 C1.37432457 3.81756824 0.67975039 7.07255329 0 11 C-0.99 11.33 -1.98 11.66 -3 12 C-2.14285714 3.42857143 -2.14285714 3.42857143 0 0 Z " fill="#2B5163" transform="translate(430,418)"/>
<path d="M0 0 C6.625 0.75 6.625 0.75 10 3 C9.67 3.66 9.34 4.32 9 5 C5.22454612 3.90931332 2.52956528 3.0916909 0 0 Z " fill="#3C657E" transform="translate(886,751)"/>
<path d="M0 0 C3.125 0.375 3.125 0.375 6 1 C3.11964908 3.24027294 0.15133488 5.16172132 -3 7 C-2.25 2.25 -2.25 2.25 0 0 Z " fill="#3E6781" transform="translate(594,701)"/>
<path d="M0 0 C0.75 1.6875 0.75 1.6875 1 4 C-0.9375 6.75 -0.9375 6.75 -3 9 C-3.99 8.34 -4.98 7.68 -6 7 C-5.01 7 -4.02 7 -3 7 C-2.87625 6.21625 -2.7525 5.4325 -2.625 4.625 C-2 2 -2 2 0 0 Z " fill="#4B6979" transform="translate(549,697)"/>
<path d="M0 0 C-1 3 -1 3 -4.0625 4.6875 C-5.031875 5.120625 -6.00125 5.55375 -7 6 C-6.67 4.35 -6.34 2.7 -6 1 C-3 0 -3 0 0 0 Z " fill="#315B78" transform="translate(520,370)"/>
<path d="M0 0 C3.98381075 2.16264012 6.88983545 4.71211176 10 8 C7.21788056 7.62403791 5.4120716 7.32681541 3.1875 5.5625 C2 4 2 4 2 2 C1.34 2 0.68 2 0 2 C0 1.34 0 0.68 0 0 Z " fill="#456A85" transform="translate(646,360)"/>
<path d="M0 0 C-1.07401108 2.91517292 -1.77810176 4.77810176 -4 7 C-4.99 5.68 -5.98 4.36 -7 3 C-2.25 0 -2.25 0 0 0 Z " fill="#2D5D79" transform="translate(491,350)"/>
<path d="M0 0 C0.33 3.3 0.66 6.6 1 10 C-1 7 -1 7 -1 4 C-2.32 3.67 -3.64 3.34 -5 3 C-2.25 0 -2.25 0 0 0 Z " fill="#40657C" transform="translate(695,431)"/>
<path d="M0 0 C0.33 0.66 0.66 1.32 1 2 C1.66 2.33 2.32 2.66 3 3 C2.3503125 3.61875 2.3503125 3.61875 1.6875 4.25 C-0.05838272 6.06054505 -1.52619271 7.96474232 -3 10 C-3.36923077 4.58461538 -3.36923077 4.58461538 -1.5 1.625 C-1.005 1.08875 -0.51 0.5525 0 0 Z " fill="#3F6981" transform="translate(483,410)"/>
<path d="M0 0 C0.66 0.33 1.32 0.66 2 1 C1.67 1.99 1.34 2.98 1 4 C0.34 4 -0.32 4 -1 4 C-1.66 5.32 -2.32 6.64 -3 8 C-3.33 7.34 -3.66 6.68 -4 6 C-4.66 5.67 -5.32 5.34 -6 5 C-4.02 3.35 -2.04 1.7 0 0 Z " fill="#335E79" transform="translate(476,358)"/>
<path d="M0 0 C1.9375 0.75 1.9375 0.75 4 2 C4.625 4 4.625 4 5 6 C5.66 6.66 6.32 7.32 7 8 C6.01 8 5.02 8 4 8 C0 2.74285714 0 2.74285714 0 0 Z " fill="#4D6E83" transform="translate(737,736)"/>
<path d="M0 0 C1.5027237 0.97498145 3.00211963 1.95509389 4.5 2.9375 C5.3353125 3.48277344 6.170625 4.02804687 7.03125 4.58984375 C7.6809375 5.05519531 8.330625 5.52054688 9 6 C9 6.33 9 6.66 9 7 C4.50970874 7.36407767 4.50970874 7.36407767 2.25 5.75 C0.87632977 3.82686167 0.50966484 2.28405356 0 0 Z " fill="#577D8F" transform="translate(892,732)"/>
<path d="M0 0 C0.33 0.66 0.66 1.32 1 2 C1.99 2.33 2.98 2.66 4 3 C5.1875 6.0625 5.1875 6.0625 6 9 C5.01 9 4.02 9 3 9 C0 3.375 0 3.375 0 0 Z " fill="#50738A" transform="translate(872,732)"/>
<path d="M0 0 C-0.66 0 -1.32 0 -2 0 C-2 0.66 -2 1.32 -2 2 C-4.31 2.33 -6.62 2.66 -9 3 C-5.83583464 -0.30799106 -4.50236011 -1.35070803 0 0 Z M-6 3 C-5.67 3.66 -5.34 4.32 -5 5 C-5.66 4.67 -6.32 4.34 -7 4 C-6.67 3.67 -6.34 3.34 -6 3 Z " fill="#466F85" transform="translate(600,685)"/>
<path d="M0 0 C1.79133978 -0.05391993 3.58313899 -0.09275571 5.375 -0.125 C6.37273438 -0.14820313 7.37046875 -0.17140625 8.3984375 -0.1953125 C11 0 11 0 13 2 C9.72814447 3.07310858 7.57052408 2.89263102 4.25 2.0625 C3.05117188 1.77052734 3.05117188 1.77052734 1.828125 1.47265625 C1.22484375 1.31667969 0.6215625 1.16070313 0 1 C0 0.67 0 0.34 0 0 Z " fill="#2A5470" transform="translate(695,685)"/>
<path d="M0 0 C0.66 1.32 1.32 2.64 2 4 C0.71937515 5.7074998 -0.61767557 7.37373596 -2 9 C-2.66 9 -3.32 9 -4 9 C-2.94124926 5.59687262 -1.99097846 2.98646769 0 0 Z " fill="#4D738D" transform="translate(438,399)"/>
<path d="M0 0 C0.66 1.32 1.32 2.64 2 4 C-1 6 -1 6 -3.1875 5.625 C-3.785625 5.41875 -4.38375 5.2125 -5 5 C-3.35 3.35 -1.7 1.7 0 0 Z " fill="#456C87" transform="translate(621,731)"/>
<path d="M0 0 C3.65316671 1.24976756 4.78065836 1.67098753 7 5 C5.68 5.33 4.36 5.66 3 6 C3 5.34 3 4.68 3 4 C2.34 4 1.68 4 1 4 C0.67 2.68 0.34 1.36 0 0 Z " fill="#3D6481" transform="translate(545,717)"/>
<path d="M0 0 C2 1 2 1 3.1875 3.375 C4 6 4 6 3 9 C1.5 7.875 1.5 7.875 0 6 C-0.1875 2.8125 -0.1875 2.8125 0 0 Z " fill="#2A526B" transform="translate(504,711)"/>
<path d="M0 0 C0.99 0.33 1.98 0.66 3 1 C1.68 3.31 0.36 5.62 -1 8 C-2.0625 6.125 -2.0625 6.125 -3 4 C-2.67 3.34 -2.34 2.68 -2 2 C-1.34 2 -0.68 2 0 2 C0 1.34 0 0.68 0 0 Z " fill="#3D6681" transform="translate(893,703)"/>
<path d="M0 0 C1.65 1.65 3.3 3.3 5 5 C4.67 5.66 4.34 6.32 4 7 C2.35 6.01 0.7 5.02 -1 4 C-0.67 2.68 -0.34 1.36 0 0 Z " fill="#486D87" transform="translate(798,695)"/>
<path d="M0 0 C0.33 0.66 0.66 1.32 1 2 C1.99 1.67 2.98 1.34 4 1 C4.66 2.65 5.32 4.3 6 6 C4.35 5.67 2.7 5.34 1 5 C0.67 3.35 0.34 1.7 0 0 Z " fill="#30647A" transform="translate(442,500)"/>
<path d="M0 0 C1.1446875 0.495 1.1446875 0.495 2.3125 1 C4.99069135 2.17436686 4.99069135 2.17436686 8 2 C8 2.66 8 3.32 8 4 C2.25 4.125 2.25 4.125 0 3 C0 2.01 0 1.02 0 0 Z " fill="#0F4262" transform="translate(468,450)"/>
<path d="M0 0 C3.4375 0.8125 3.4375 0.8125 7 2 C7.33 2.99 7.66 3.98 8 5 C2.25 3.375 2.25 3.375 0 0 Z " fill="#466D82" transform="translate(502,750)"/>
<path d="M0 0 C0.99 0.33 1.98 0.66 3 1 C4.16552619 5.19589427 4.08954032 5.82091936 2 10 C1.34 6.7 0.68 3.4 0 0 Z " fill="#2F5975" transform="translate(623,712)"/>
<path d="M0 0 C0.66 1.32 1.32 2.64 2 4 C2.99 4 3.98 4 5 4 C4.67 4.99 4.34 5.98 4 7 C2.68 7 1.36 7 0 7 C0 4.69 0 2.38 0 0 Z " fill="#416E8B" transform="translate(586,685)"/>
<path d="M0 0 C1.32 1.32 2.64 2.64 4 4 C3.34 4 2.68 4 2 4 C2 5.98 2 7.96 2 10 C-0.09350689 6.5980513 -0.17942163 3.94727588 0 0 Z " fill="#666666" transform="translate(422,496)"/>
<path d="M0 0 C2.31 0 4.62 0 7 0 C7.33 0.99 7.66 1.98 8 3 C6.02 3 4.04 3 2 3 C2 2.34 2 1.68 2 1 C1.34 0.67 0.68 0.34 0 0 Z " fill="#235170" transform="translate(666,395)"/>
<path d="M0 0 C2.0625 0.4375 2.0625 0.4375 4 1 C1.03 3.475 1.03 3.475 -2 6 C-1.125 1.125 -1.125 1.125 0 0 Z " fill="#3E657D" transform="translate(632,744)"/>
<path d="M0 0 C0.99 0.33 1.98 0.66 3 1 C3.33 2.98 3.66 4.96 4 7 C3.01 6.67 2.02 6.34 1 6 C0.67 4.02 0.34 2.04 0 0 Z " fill="#0F4161" transform="translate(736,730)"/>
<path d="M0 0 C3.82097239 0.53069061 6.06171403 1.49701566 9 4 C8.01 4.33 7.02 4.66 6 5 C6 4.34 6 3.68 6 3 C4.35 3 2.7 3 1 3 C0.67 2.01 0.34 1.02 0 0 Z " fill="#4E728B" transform="translate(536,713)"/>
<path d="M0 0 C1.8125 0.1875 1.8125 0.1875 4 1 C5.75 3.5625 5.75 3.5625 7 6 C6.01 6 5.02 6 4 6 C1.8125 3 1.8125 3 0 0 Z " fill="#466A81" transform="translate(617,704)"/>
<path d="M0 0 C1.32 0 2.64 0 4 0 C4.33 2.64 4.66 5.28 5 8 C2.98863724 5.44008376 1.37154504 2.95409701 0 0 Z " fill="#446A81" transform="translate(699,704)"/>
<path d="M0 0 C1.485 0.99 1.485 0.99 3 2 C2.67 3.65 2.34 5.3 2 7 C1.01 6.34 0.02 5.68 -1 5 C-0.67 3.35 -0.34 1.7 0 0 Z " fill="#315C78" transform="translate(636,697)"/>
<path d="M0 0 C0 0.66 0 1.32 0 2 C-3.3 2.33 -6.6 2.66 -10 3 C-6.1865669 0.45771127 -4.5252563 -0.11908569 0 0 Z " fill="#457388" transform="translate(901,684)"/>
<path d="M0 0 C2.97 1.98 2.97 1.98 6 4 C2.86650268 5.04449911 2.01031744 4.93423645 -1 4 C-0.67 2.68 -0.34 1.36 0 0 Z " fill="#444647" transform="translate(431,504)"/>
<path d="M0 0 C3.63 0.33 7.26 0.66 11 1 C11 1.33 11 1.66 11 2 C5.06 2.495 5.06 2.495 -1 3 C-0.67 2.01 -0.34 1.02 0 0 Z " fill="#5C8399" transform="translate(613,477)"/>
</svg>
